<svg width="224" height="64" viewBox="0 0 224 64" fill="none" xmlns="http://www.w3.org/2000/svg">
<path d="M39.8108 59.334C39.8108 59.334 62.4746 62.8375 72.9163 59.6833C79.7621 57.6153 82.0562 53.077 82.0562 53.077C83.3935 44.8979 83.1459 23.6321 59.8784 26.6521L29.7912 57.7958C21.7679 58.7395 5.11964 57.9845 2.71266 47.4145C1.37545 37.3479 5.72138 19.6683 33.8028 29.4833C29.7912 21.9333 25.579 6.07835 40.8232 3.05836C47.1749 2.74378 59.8784 3.20243 59.8784 17.5474" stroke="white" stroke-width="5" stroke-linecap="round"/>
<path d="M116.316 34.392V51H114.132V38.616L108.612 51H107.076L101.532 38.592V51H99.348V34.392H101.7L107.844 48.12L113.988 34.392H116.316ZM132.02 43.92C132.02 44.336 131.996 44.776 131.948 45.24H121.436C121.516 46.536 121.956 47.552 122.756 48.288C123.572 49.008 124.556 49.368 125.708 49.368C126.652 49.368 127.436 49.152 128.06 48.72C128.7 48.272 129.148 47.68 129.404 46.944H131.756C131.404 48.208 130.7 49.24 129.644 50.04C128.588 50.824 127.276 51.216 125.708 51.216C124.46 51.216 123.34 50.936 122.348 50.376C121.372 49.816 120.604 49.024 120.044 48C119.484 46.96 119.204 45.76 119.204 44.4C119.204 43.04 119.476 41.848 120.02 40.824C120.564 39.8 121.324 39.016 122.3 38.472C123.292 37.912 124.428 37.632 125.708 37.632C126.956 37.632 128.06 37.904 129.02 38.448C129.98 38.992 130.716 39.744 131.228 40.704C131.756 41.648 132.02 42.72 132.02 43.92ZM129.764 43.464C129.764 42.632 129.58 41.92 129.212 41.328C128.844 40.72 128.34 40.264 127.7 39.96C127.076 39.64 126.38 39.48 125.612 39.48C124.508 39.48 123.564 39.832 122.78 40.536C122.012 41.24 121.572 42.216 121.46 43.464H129.764ZM134.087 44.376C134.087 43.032 134.359 41.856 134.903 40.848C135.447 39.824 136.191 39.032 137.135 38.472C138.095 37.912 139.167 37.632 140.351 37.632C141.375 37.632 142.327 37.872 143.207 38.352C144.087 38.816 144.759 39.432 145.223 40.2V33.24H147.431V51H145.223V48.528C144.791 49.312 144.151 49.96 143.303 50.472C142.455 50.968 141.463 51.216 140.327 51.216C139.159 51.216 138.095 50.928 137.135 50.352C136.191 49.776 135.447 48.968 134.903 47.928C134.359 46.888 134.087 45.704 134.087 44.376ZM145.223 44.4C145.223 43.408 145.023 42.544 144.623 41.808C144.223 41.072 143.679 40.512 142.991 40.128C142.319 39.728 141.575 39.528 140.759 39.528C139.943 39.528 139.199 39.72 138.527 40.104C137.855 40.488 137.319 41.048 136.919 41.784C136.519 42.52 136.319 43.384 136.319 44.376C136.319 45.384 136.519 46.264 136.919 47.016C137.319 47.752 137.855 48.32 138.527 48.72C139.199 49.104 139.943 49.296 140.759 49.296C141.575 49.296 142.319 49.104 142.991 48.72C143.679 48.32 144.223 47.752 144.623 47.016C145.023 46.264 145.223 45.392 145.223 44.4ZM159.233 51.48C157.649 51.48 156.289 51.208 155.153 50.664C154.017 50.104 153.081 49.376 152.345 48.48C151.609 47.568 151.065 46.584 150.713 45.528C150.361 44.472 150.185 43.448 150.185 42.456V41.928C150.185 40.824 150.361 39.744 150.713 38.688C151.081 37.616 151.633 36.648 152.369 35.784C153.121 34.92 154.057 34.232 155.177 33.72C156.297 33.208 157.609 32.952 159.113 32.952C160.713 32.952 162.129 33.256 163.361 33.864C164.609 34.456 165.609 35.296 166.361 36.384C167.113 37.456 167.553 38.704 167.681 40.128H163.217C163.105 39.52 162.865 38.992 162.497 38.544C162.129 38.096 161.657 37.752 161.081 37.512C160.505 37.256 159.849 37.128 159.113 37.128C158.425 37.128 157.801 37.248 157.241 37.488C156.697 37.728 156.233 38.072 155.849 38.52C155.481 38.952 155.193 39.48 154.985 40.104C154.793 40.728 154.697 41.432 154.697 42.216C154.697 43 154.793 43.704 154.985 44.328C155.193 44.952 155.489 45.488 155.873 45.936C156.273 46.384 156.753 46.728 157.313 46.968C157.873 47.192 158.513 47.304 159.233 47.304C160.353 47.304 161.297 47.032 162.065 46.488C162.849 45.944 163.321 45.216 163.481 44.304H167.945C167.801 45.616 167.361 46.816 166.625 47.904C165.889 48.992 164.897 49.864 163.649 50.52C162.401 51.16 160.929 51.48 159.233 51.48ZM170.292 51V33.48H174.66V51H170.292ZM168.804 36.648V33.48H174.66V36.648H168.804ZM184.481 51.48C183.313 51.48 182.273 51.304 181.361 50.952C180.449 50.6 179.673 50.112 179.033 49.488C178.409 48.864 177.929 48.144 177.593 47.328C177.273 46.512 177.113 45.64 177.113 44.712V44.136C177.113 43.176 177.281 42.28 177.617 41.448C177.969 40.616 178.465 39.888 179.105 39.264C179.745 38.64 180.521 38.152 181.433 37.8C182.345 37.448 183.361 37.272 184.481 37.272C185.617 37.272 186.633 37.448 187.529 37.8C188.441 38.152 189.217 38.64 189.857 39.264C190.497 39.888 190.985 40.616 191.321 41.448C191.673 42.28 191.849 43.176 191.849 44.136V44.712C191.849 45.64 191.681 46.512 191.345 47.328C191.025 48.144 190.545 48.864 189.905 49.488C189.281 50.112 188.513 50.6 187.601 50.952C186.689 51.304 185.649 51.48 184.481 51.48ZM184.481 47.832C185.153 47.832 185.705 47.688 186.137 47.4C186.585 47.112 186.921 46.712 187.145 46.2C187.369 45.672 187.481 45.08 187.481 44.424C187.481 43.736 187.361 43.136 187.121 42.624C186.897 42.096 186.561 41.68 186.113 41.376C185.665 41.072 185.121 40.92 184.481 40.92C183.841 40.92 183.297 41.072 182.849 41.376C182.401 41.68 182.057 42.096 181.817 42.624C181.593 43.136 181.481 43.736 181.481 44.424C181.481 45.08 181.593 45.672 181.817 46.2C182.041 46.712 182.377 47.112 182.825 47.4C183.273 47.688 183.825 47.832 184.481 47.832ZM198.68 51.432C197.176 51.432 196.008 50.944 195.176 49.968C194.36 48.976 193.952 47.464 193.952 45.432V37.752H198.32V45.552C198.32 46.144 198.496 46.624 198.848 46.992C199.2 47.36 199.672 47.544 200.264 47.544C200.856 47.544 201.336 47.36 201.704 46.992C202.072 46.624 202.256 46.128 202.256 45.504V37.752H206.624V51H203.168V45.432H203.408C203.408 46.792 203.232 47.92 202.88 48.816C202.544 49.696 202.04 50.352 201.368 50.784C200.696 51.216 199.864 51.432 198.872 51.432H198.68ZM215.298 51.432C214.37 51.432 213.522 51.264 212.754 50.928C212.002 50.592 211.346 50.128 210.786 49.536C210.242 48.928 209.818 48.216 209.514 47.4C209.226 46.584 209.082 45.696 209.082 44.736V44.16C209.082 43.2 209.218 42.312 209.49 41.496C209.778 40.664 210.186 39.944 210.714 39.336C211.242 38.712 211.882 38.232 212.634 37.896C213.386 37.544 214.226 37.368 215.154 37.368C216.226 37.368 217.138 37.608 217.89 38.088C218.658 38.552 219.242 39.232 219.642 40.128C220.058 41.024 220.282 42.112 220.314 43.392L219.306 42.648V33.48H223.674V51H220.218V45.624H220.698C220.666 46.808 220.426 47.84 219.978 48.72C219.53 49.584 218.906 50.256 218.106 50.736C217.322 51.2 216.386 51.432 215.298 51.432ZM216.474 47.832C217.002 47.832 217.482 47.712 217.914 47.472C218.362 47.232 218.722 46.88 218.994 46.416C219.266 45.952 219.402 45.392 219.402 44.736V43.92C219.402 43.28 219.258 42.744 218.97 42.312C218.698 41.88 218.338 41.552 217.89 41.328C217.458 41.088 216.986 40.968 216.474 40.968C215.898 40.968 215.378 41.12 214.914 41.424C214.466 41.712 214.106 42.12 213.834 42.648C213.578 43.16 213.45 43.76 213.45 44.448C213.45 45.136 213.578 45.736 213.834 46.248C214.106 46.744 214.466 47.136 214.914 47.424C215.378 47.696 215.898 47.832 216.474 47.832Z" fill="white"/>
</svg>
