<svg width="226" height="64" viewBox="0 0 226 64" fill="none" xmlns="http://www.w3.org/2000/svg">
<path d="M40.3108 59.334C40.3108 59.334 62.9746 62.8375 73.4163 59.6833C80.2621 57.6153 82.5562 53.077 82.5562 53.077C83.8935 44.8979 83.6459 23.6321 60.3784 26.6521L30.2912 57.7958C22.2679 58.7395 5.61964 57.9845 3.21266 47.4145C1.87545 37.3479 6.22138 19.6683 34.3028 29.4833C30.2912 21.9333 26.079 6.07835 41.3232 3.05836C47.6749 2.74378 60.3784 3.20243 60.3784 17.5474" stroke="url(#paint0_linear_118_1358)" stroke-width="5" stroke-linecap="round"/>
<path d="M116.816 34.392V51H114.632V38.616L109.112 51H107.576L102.032 38.592V51H99.848V34.392H102.2L108.344 48.12L114.488 34.392H116.816ZM132.52 43.92C132.52 44.336 132.496 44.776 132.448 45.24H121.936C122.016 46.536 122.456 47.552 123.256 48.288C124.072 49.008 125.056 49.368 126.208 49.368C127.152 49.368 127.936 49.152 128.56 48.72C129.2 48.272 129.648 47.68 129.904 46.944H132.256C131.904 48.208 131.2 49.24 130.144 50.04C129.088 50.824 127.776 51.216 126.208 51.216C124.96 51.216 123.84 50.936 122.848 50.376C121.872 49.816 121.104 49.024 120.544 48C119.984 46.96 119.704 45.76 119.704 44.4C119.704 43.04 119.976 41.848 120.52 40.824C121.064 39.8 121.824 39.016 122.8 38.472C123.792 37.912 124.928 37.632 126.208 37.632C127.456 37.632 128.56 37.904 129.52 38.448C130.48 38.992 131.216 39.744 131.728 40.704C132.256 41.648 132.52 42.72 132.52 43.92ZM130.264 43.464C130.264 42.632 130.08 41.92 129.712 41.328C129.344 40.72 128.84 40.264 128.2 39.96C127.576 39.64 126.88 39.48 126.112 39.48C125.008 39.48 124.064 39.832 123.28 40.536C122.512 41.24 122.072 42.216 121.96 43.464H130.264ZM134.587 44.376C134.587 43.032 134.859 41.856 135.403 40.848C135.947 39.824 136.691 39.032 137.635 38.472C138.595 37.912 139.667 37.632 140.851 37.632C141.875 37.632 142.827 37.872 143.707 38.352C144.587 38.816 145.259 39.432 145.723 40.2V33.24H147.931V51H145.723V48.528C145.291 49.312 144.651 49.96 143.803 50.472C142.955 50.968 141.963 51.216 140.827 51.216C139.659 51.216 138.595 50.928 137.635 50.352C136.691 49.776 135.947 48.968 135.403 47.928C134.859 46.888 134.587 45.704 134.587 44.376ZM145.723 44.4C145.723 43.408 145.523 42.544 145.123 41.808C144.723 41.072 144.179 40.512 143.491 40.128C142.819 39.728 142.075 39.528 141.259 39.528C140.443 39.528 139.699 39.72 139.027 40.104C138.355 40.488 137.819 41.048 137.419 41.784C137.019 42.52 136.819 43.384 136.819 44.376C136.819 45.384 137.019 46.264 137.419 47.016C137.819 47.752 138.355 48.32 139.027 48.72C139.699 49.104 140.443 49.296 141.259 49.296C142.075 49.296 142.819 49.104 143.491 48.72C144.179 48.32 144.723 47.752 145.123 47.016C145.523 46.264 145.723 45.392 145.723 44.4Z" fill="#374988"/>
<path d="M159.733 51.48C158.149 51.48 156.789 51.208 155.653 50.664C154.517 50.104 153.581 49.376 152.845 48.48C152.109 47.568 151.565 46.584 151.213 45.528C150.861 44.472 150.685 43.448 150.685 42.456V41.928C150.685 40.824 150.861 39.744 151.213 38.688C151.581 37.616 152.133 36.648 152.869 35.784C153.621 34.92 154.557 34.232 155.677 33.72C156.797 33.208 158.109 32.952 159.613 32.952C161.213 32.952 162.629 33.256 163.861 33.864C165.109 34.456 166.109 35.296 166.861 36.384C167.613 37.456 168.053 38.704 168.181 40.128H163.717C163.605 39.52 163.365 38.992 162.997 38.544C162.629 38.096 162.157 37.752 161.581 37.512C161.005 37.256 160.349 37.128 159.613 37.128C158.925 37.128 158.301 37.248 157.741 37.488C157.197 37.728 156.733 38.072 156.349 38.52C155.981 38.952 155.693 39.48 155.485 40.104C155.293 40.728 155.197 41.432 155.197 42.216C155.197 43 155.293 43.704 155.485 44.328C155.693 44.952 155.989 45.488 156.373 45.936C156.773 46.384 157.253 46.728 157.813 46.968C158.373 47.192 159.013 47.304 159.733 47.304C160.853 47.304 161.797 47.032 162.565 46.488C163.349 45.944 163.821 45.216 163.981 44.304H168.445C168.301 45.616 167.861 46.816 167.125 47.904C166.389 48.992 165.397 49.864 164.149 50.52C162.901 51.16 161.429 51.48 159.733 51.48ZM170.792 51V33.48H175.16V51H170.792ZM169.304 36.648V33.48H175.16V36.648H169.304ZM184.981 51.48C183.813 51.48 182.773 51.304 181.861 50.952C180.949 50.6 180.173 50.112 179.533 49.488C178.909 48.864 178.429 48.144 178.093 47.328C177.773 46.512 177.613 45.64 177.613 44.712V44.136C177.613 43.176 177.781 42.28 178.117 41.448C178.469 40.616 178.965 39.888 179.605 39.264C180.245 38.64 181.021 38.152 181.933 37.8C182.845 37.448 183.861 37.272 184.981 37.272C186.117 37.272 187.133 37.448 188.029 37.8C188.941 38.152 189.717 38.64 190.357 39.264C190.997 39.888 191.485 40.616 191.821 41.448C192.173 42.28 192.349 43.176 192.349 44.136V44.712C192.349 45.64 192.181 46.512 191.845 47.328C191.525 48.144 191.045 48.864 190.405 49.488C189.781 50.112 189.013 50.6 188.101 50.952C187.189 51.304 186.149 51.48 184.981 51.48ZM184.981 47.832C185.653 47.832 186.205 47.688 186.637 47.4C187.085 47.112 187.421 46.712 187.645 46.2C187.869 45.672 187.981 45.08 187.981 44.424C187.981 43.736 187.861 43.136 187.621 42.624C187.397 42.096 187.061 41.68 186.613 41.376C186.165 41.072 185.621 40.92 184.981 40.92C184.341 40.92 183.797 41.072 183.349 41.376C182.901 41.68 182.557 42.096 182.317 42.624C182.093 43.136 181.981 43.736 181.981 44.424C181.981 45.08 182.093 45.672 182.317 46.2C182.541 46.712 182.877 47.112 183.325 47.4C183.773 47.688 184.325 47.832 184.981 47.832ZM199.18 51.432C197.676 51.432 196.508 50.944 195.676 49.968C194.86 48.976 194.452 47.464 194.452 45.432V37.752H198.82V45.552C198.82 46.144 198.996 46.624 199.348 46.992C199.7 47.36 200.172 47.544 200.764 47.544C201.356 47.544 201.836 47.36 202.204 46.992C202.572 46.624 202.756 46.128 202.756 45.504V37.752H207.124V51H203.668V45.432H203.908C203.908 46.792 203.732 47.92 203.38 48.816C203.044 49.696 202.54 50.352 201.868 50.784C201.196 51.216 200.364 51.432 199.372 51.432H199.18ZM215.798 51.432C214.87 51.432 214.022 51.264 213.254 50.928C212.502 50.592 211.846 50.128 211.286 49.536C210.742 48.928 210.318 48.216 210.014 47.4C209.726 46.584 209.582 45.696 209.582 44.736V44.16C209.582 43.2 209.718 42.312 209.99 41.496C210.278 40.664 210.686 39.944 211.214 39.336C211.742 38.712 212.382 38.232 213.134 37.896C213.886 37.544 214.726 37.368 215.654 37.368C216.726 37.368 217.638 37.608 218.39 38.088C219.158 38.552 219.742 39.232 220.142 40.128C220.558 41.024 220.782 42.112 220.814 43.392L219.806 42.648V33.48H224.174V51H220.718V45.624H221.198C221.166 46.808 220.926 47.84 220.478 48.72C220.03 49.584 219.406 50.256 218.606 50.736C217.822 51.2 216.886 51.432 215.798 51.432ZM216.974 47.832C217.502 47.832 217.982 47.712 218.414 47.472C218.862 47.232 219.222 46.88 219.494 46.416C219.766 45.952 219.902 45.392 219.902 44.736V43.92C219.902 43.28 219.758 42.744 219.47 42.312C219.198 41.88 218.838 41.552 218.39 41.328C217.958 41.088 217.486 40.968 216.974 40.968C216.398 40.968 215.878 41.12 215.414 41.424C214.966 41.712 214.606 42.12 214.334 42.648C214.078 43.16 213.95 43.76 213.95 44.448C213.95 45.136 214.078 45.736 214.334 46.248C214.606 46.744 214.966 47.136 215.414 47.424C215.878 47.696 216.398 47.832 216.974 47.832Z" fill="#1C2544"/>
<defs>
<linearGradient id="paint0_linear_118_1358" x1="65.0341" y1="18.0345" x2="5.31039" y2="59.617" gradientUnits="userSpaceOnUse">
<stop stop-color="#1C2544"/>
<stop offset="1" stop-color="#1C2544" stop-opacity="0.35"/>
</linearGradient>
</defs>
</svg>
