<svg width="172" height="158" viewBox="0 0 172 158" fill="none" xmlns="http://www.w3.org/2000/svg">
<g clip-path="url(#clip0_118_1436)">
<path d="M59.855 20.55C68.385 8.30001 82.905 0.170007 97.825 0.290007C112.745 0.410007 127.525 9.21001 133.885 22.72C135.805 26.79 136.985 31.21 139.165 35.15C142.725 41.61 148.735 46.41 152.535 52.72C161.545 67.66 155.695 88.31 142.705 99.97C129.715 111.63 111.475 115.66 94.025 115.81C68.695 116.03 41.475 107.52 27.125 86.64C19.805 75.97 16.465 62.98 15.325 50.08C13.705 31.77 21.445 32.6 34.885 32.64C48.385 32.68 50.895 33.41 59.855 20.55Z" fill="#212E7C"/>
<path d="M112.975 51.97L97.9249 60.34C99.6949 69.08 123.365 68.92 123.655 60.59C109.095 63.68 112.975 51.97 112.975 51.97Z" fill="#8C3E2F"/>
<path d="M126.635 79.31C124.015 70.75 111.425 69.27 105.335 64.17C98.8849 63.86 87.9549 61.62 82.8049 66.61C76.1849 68.74 69.6749 69.12 66.8649 72.22C61.4549 78.21 64.0549 88.66 65.6749 101.58C65.7749 113.75 89.1049 107.65 95.9149 109.04C125.775 110.72 128.915 109.3 126.635 79.31Z" fill="#03B1E5"/>
<path d="M115.195 88.96C115.075 82.34 116.345 68.21 104.955 65.08C93.0649 61.41 83.8349 63.18 80.5649 70.44C79.4549 72.91 79.0349 76.01 79.4349 79.76C70.5349 52.41 126.375 52.58 115.195 88.96Z" fill="black"/>
<path d="M87.6049 52.13C112.195 50.92 102.385 52.94 104.245 73.17C79.6549 74.38 89.4649 72.36 87.6049 52.13Z" fill="#F77D5C"/>
<path d="M105.785 65.22C92.8149 82.64 89.5149 62.9 83.7149 66.31C82.9949 87.06 82.3349 92.21 95.9249 109.03L105.515 94.89C104.735 93.64 110.225 63.86 105.785 65.22Z" fill="white"/>
<path d="M105.245 64.28C105.245 64.28 107.865 84.1 95.9249 109.04C93.8449 110.67 115.895 92.94 108.785 79.56L112.675 76.94C111.625 74.13 109.215 64.27 105.245 64.28Z" fill="#0A9CDD"/>
<path d="M86.5849 63.99C86.5849 63.99 83.9849 84.1 95.9249 109.04C98.0049 110.68 75.9549 92.92 83.0649 79.56L79.1749 76.94C80.3249 73.77 82.5149 64.85 86.5849 63.99Z" fill="#0A9CDD"/>
<path d="M111.425 42.46C109.245 41.85 107.485 49.59 109.725 49.98C111.905 50.59 113.665 42.85 111.425 42.46Z" fill="#FCD462"/>
<path d="M80.2349 42.46C82.4149 41.85 84.1749 49.59 81.9349 49.98C79.7549 50.6 77.9949 42.85 80.2349 42.46Z" fill="#FCD462"/>
<path d="M95.9749 25.74C116.215 26.5 115.065 58.43 97.2049 63.9C76.9249 63.17 74.9949 25.8 95.9749 25.74Z" fill="#FF8860"/>
<path d="M79.3349 79.28C85.6149 78.82 92.5649 98.48 81.7949 98.36C82.5649 96.26 87.7349 96.74 86.2749 91.58C86.0349 83.28 81.0149 82.22 79.3349 79.28Z" fill="black"/>
<path d="M78.2049 80.28C71.7349 80.79 67.0449 97.22 75.4249 97.21C68.0349 102.05 68.7149 82.74 75.5649 80.22C76.6149 78.94 81.6349 79.43 78.2049 80.28Z" fill="black"/>
<path d="M81.9049 96.75C83.3949 96.73 83.3949 99.07 81.9049 99.05C80.4149 99.07 80.4149 96.73 81.9049 96.75Z" fill="black"/>
<path d="M75.6849 96.75C77.1749 96.73 77.1749 99.07 75.6849 99.05C74.1949 99.07 74.1949 96.73 75.6849 96.75Z" fill="black"/>
<path d="M114.445 87.13C117.775 87.08 117.775 92.31 114.445 92.26C111.125 92.3 111.125 87.08 114.445 87.13Z" fill="black"/>
<path d="M114.445 88.43C116.085 88.41 116.085 90.98 114.445 90.95C112.805 90.98 112.805 88.4 114.445 88.43Z" fill="black"/>
<path d="M99.0049 32.95C108.475 38.58 115.685 46.71 104.805 58.77C119.155 57.01 117.455 26.41 109.125 26.41C100.245 26.4 92.0649 21.81 99.0049 32.95Z" fill="#8C3E2F"/>
<path d="M105.505 21.9C90.5549 15.8 75.8549 23.87 78.5549 47.66C80.8749 53.86 85.0249 62.32 69.8549 60.15C67.8549 62.65 83.1049 70.9 86.4749 64.59C90.0849 59.1 83.2249 53.96 83.8149 47.92C85.3249 32.34 96.6249 39.48 101.985 34.72C105.615 31.5 110.385 24.68 105.505 21.9Z" fill="#8C3E2F"/>
<path d="M78.7849 48.96C78.7849 48.96 82.7049 59.87 68.8949 57.71C71.1349 70.13 82.1049 66.44 83.7249 55.27L79.3649 45.7L78.7849 48.96Z" fill="#8C3E2F"/>
<path d="M114.465 47.72C114.465 47.72 110.765 59.87 124.575 57.71C122.335 70.13 111.365 66.44 109.745 55.27L114.105 45.7L114.465 47.72Z" fill="#8C3E2F"/>
<path d="M121.995 106.75C121.845 97.83 121.775 88.92 121.785 80C121.785 78.34 121.905 76.45 123.195 75.42C123.425 75.24 123.705 75.09 123.995 75.14C124.245 75.19 124.435 75.38 124.605 75.56C129.545 80.84 131.195 88.31 132.655 95.39C133.515 99.57 134.015 102.8 133.995 107.06C130.095 107.19 125.885 106.91 121.995 106.75Z" fill="#0A9CDD"/>
<path d="M66.875 97.21C67.775 95.39 69.985 71.11 69.255 71.03C63.895 70.43 59.425 84.32 56.165 88.29C53.465 91.58 53.785 94.24 52.595 93.05C48.915 89.37 45.315 79.39 42.625 75C42.355 74.56 42.075 74.07 41.595 73.9C41.045 73.7 40.445 73.97 39.925 74.24C38.265 75.09 36.585 75.96 35.235 77.24C31.125 81.16 33.185 84.76 35.335 88.89C38.945 95.84 49.015 115.66 57.395 106.75C58.665 105.38 65.155 100.67 66.875 97.21Z" fill="#0A9CDD"/>
<path d="M33.085 78.89C28.025 75.26 25.125 68.82 25.765 62.63C25.825 62.05 25.935 61.42 26.365 61.02C26.695 60.71 27.155 60.59 27.605 60.52C30.225 60.13 32.895 61.23 34.955 62.89C37.015 64.55 38.575 66.75 40.095 68.91C40.675 68 41.885 67.55 42.915 67.86C44.135 70.05 42.725 73.23 40.285 73.79" fill="#FF8860"/>
</g>
<path d="M12.324 150.854V152.81H2.904V150.854H6.504V140.03C6.504 139.646 6.516 139.254 6.54 138.854L3.768 141.194C3.648 141.29 3.524 141.354 3.396 141.386C3.276 141.41 3.16 141.41 3.048 141.386C2.944 141.362 2.848 141.326 2.76 141.278C2.68 141.222 2.616 141.162 2.568 141.098L1.764 139.97L6.972 135.494H9.072V150.854H12.324ZM18.0739 135.05V145.346H18.6259C18.8019 145.346 18.9459 145.322 19.0579 145.274C19.1699 145.226 19.2859 145.126 19.4059 144.974L22.8379 141.05C22.9579 140.89 23.0899 140.77 23.2339 140.69C23.3779 140.61 23.5619 140.57 23.7859 140.57H26.1259L21.9979 145.226C21.7579 145.538 21.4939 145.786 21.2059 145.97C21.3659 146.082 21.5059 146.21 21.6259 146.354C21.7459 146.49 21.8619 146.646 21.9739 146.822L26.3779 152.81H24.0739C23.8659 152.81 23.6859 152.778 23.5339 152.714C23.3899 152.642 23.2619 152.514 23.1499 152.33L19.6099 147.53C19.4899 147.346 19.3699 147.23 19.2499 147.182C19.1299 147.126 18.9499 147.098 18.7099 147.098H18.0739V152.81H15.4939V135.05H18.0739ZM39.2289 145.73H34.4649V150.758H32.3649V145.73H27.6249V143.786H32.3649V138.77H34.4649V143.786H39.2289V145.73ZM54.4714 147.458C53.5514 147.49 52.7754 147.566 52.1434 147.686C51.5114 147.798 50.9994 147.946 50.6074 148.13C50.2154 148.306 49.9314 148.518 49.7554 148.766C49.5874 149.014 49.5034 149.286 49.5034 149.582C49.5034 149.87 49.5474 150.118 49.6354 150.326C49.7314 150.526 49.8594 150.694 50.0194 150.83C50.1874 150.958 50.3794 151.054 50.5954 151.118C50.8194 151.174 51.0634 151.202 51.3274 151.202C51.9994 151.202 52.5754 151.078 53.0554 150.83C53.5434 150.574 54.0154 150.206 54.4714 149.726V147.458ZM47.6314 142.274C49.0154 140.986 50.6634 140.342 52.5754 140.342C53.2794 140.342 53.9034 140.458 54.4474 140.69C54.9994 140.914 55.4594 141.234 55.8274 141.65C56.2034 142.066 56.4874 142.562 56.6794 143.138C56.8794 143.706 56.9794 144.338 56.9794 145.034V152.81H55.8274C55.5794 152.81 55.3914 152.774 55.2634 152.702C55.1354 152.622 55.0274 152.466 54.9394 152.234L54.6874 151.238C54.3754 151.518 54.0674 151.77 53.7634 151.994C53.4594 152.21 53.1434 152.394 52.8154 152.546C52.4954 152.698 52.1474 152.81 51.7714 152.882C51.4034 152.962 50.9954 153.002 50.5474 153.002C50.0514 153.002 49.5874 152.934 49.1554 152.798C48.7314 152.662 48.3634 152.458 48.0514 152.186C47.7394 151.906 47.4914 151.562 47.3074 151.154C47.1314 150.746 47.0434 150.266 47.0434 149.714C47.0434 149.242 47.1674 148.782 47.4154 148.334C47.6714 147.886 48.0874 147.486 48.6634 147.134C49.2474 146.774 50.0114 146.478 50.9554 146.246C51.9074 146.014 53.0794 145.882 54.4714 145.85V145.034C54.4714 144.154 54.2834 143.498 53.9074 143.066C53.5314 142.634 52.9794 142.418 52.2514 142.418C51.7554 142.418 51.3394 142.482 51.0034 142.61C50.6674 142.73 50.3754 142.862 50.1274 143.006C49.8794 143.15 49.6594 143.286 49.4674 143.414C49.2754 143.534 49.0714 143.594 48.8554 143.594C48.6794 143.594 48.5274 143.55 48.3994 143.462C48.2794 143.366 48.1794 143.25 48.0994 143.114L47.6314 142.274ZM68.6537 142.97C68.5737 143.074 68.4977 143.154 68.4257 143.21C68.3537 143.266 68.2497 143.294 68.1137 143.294C67.9777 143.294 67.8337 143.246 67.6817 143.15C67.5377 143.054 67.3617 142.95 67.1537 142.838C66.9537 142.718 66.7097 142.61 66.4217 142.514C66.1337 142.418 65.7737 142.37 65.3417 142.37C64.7817 142.37 64.2897 142.47 63.8657 142.67C63.4497 142.87 63.0977 143.158 62.8097 143.534C62.5297 143.902 62.3177 144.354 62.1737 144.89C62.0377 145.418 61.9697 146.014 61.9697 146.678C61.9697 147.366 62.0457 147.978 62.1977 148.514C62.3497 149.05 62.5657 149.502 62.8457 149.87C63.1337 150.238 63.4777 150.518 63.8777 150.71C64.2857 150.902 64.7417 150.998 65.2457 150.998C65.7417 150.998 66.1457 150.938 66.4577 150.818C66.7697 150.698 67.0297 150.566 67.2377 150.422C67.4457 150.278 67.6217 150.146 67.7657 150.026C67.9177 149.906 68.0777 149.846 68.2457 149.846C68.4537 149.846 68.6137 149.926 68.7257 150.086L69.4577 151.034C69.1617 151.394 68.8337 151.698 68.4737 151.946C68.1137 152.194 67.7337 152.398 67.3337 152.558C66.9337 152.71 66.5177 152.818 66.0857 152.882C65.6537 152.954 65.2177 152.99 64.7777 152.99C64.0177 152.99 63.3057 152.85 62.6417 152.57C61.9857 152.282 61.4097 151.87 60.9137 151.334C60.4257 150.79 60.0377 150.13 59.7497 149.354C59.4697 148.57 59.3297 147.678 59.3297 146.678C59.3297 145.774 59.4577 144.938 59.7137 144.17C59.9697 143.394 60.3417 142.726 60.8297 142.166C61.3257 141.606 61.9377 141.17 62.6657 140.858C63.3937 140.538 64.2337 140.378 65.1857 140.378C66.0737 140.378 66.8537 140.522 67.5257 140.81C68.2057 141.098 68.8097 141.506 69.3377 142.034L68.6537 142.97ZM83.4129 152.81H80.8329V142.598H74.8689V149.546C74.8689 149.986 74.9769 150.322 75.1929 150.554C75.4089 150.786 75.6969 150.902 76.0569 150.902C76.2569 150.902 76.4289 150.878 76.5729 150.83C76.7169 150.774 76.8409 150.718 76.9449 150.662C77.0489 150.598 77.1369 150.542 77.2089 150.494C77.2889 150.438 77.3649 150.41 77.4369 150.41C77.5809 150.41 77.6969 150.49 77.7849 150.65L78.5529 151.91C78.1529 152.262 77.6809 152.534 77.1369 152.726C76.5929 152.91 76.0329 153.002 75.4569 153.002C74.4409 153.002 73.6569 152.718 73.1049 152.15C72.5609 151.574 72.2889 150.766 72.2889 149.726V142.598H70.9449C70.8009 142.598 70.6769 142.554 70.5729 142.466C70.4689 142.37 70.4169 142.23 70.4169 142.046V141.002L72.3969 140.714L72.9609 137.174C73.0009 137.038 73.0689 136.93 73.1649 136.85C73.2609 136.762 73.3889 136.718 73.5489 136.718H74.8689V140.738H83.4129V152.81ZM83.9409 136.814C83.9409 137.046 83.8929 137.266 83.7969 137.474C83.7089 137.674 83.5849 137.854 83.4249 138.014C83.2649 138.166 83.0769 138.29 82.8609 138.386C82.6529 138.474 82.4329 138.518 82.2009 138.518C81.9689 138.518 81.7489 138.474 81.5409 138.386C81.3409 138.29 81.1609 138.166 81.0009 138.014C80.8489 137.854 80.7249 137.674 80.6289 137.474C80.5409 137.266 80.4969 137.046 80.4969 136.814C80.4969 136.574 80.5409 136.35 80.6289 136.142C80.7249 135.926 80.8489 135.742 81.0009 135.59C81.1609 135.43 81.3409 135.306 81.5409 135.218C81.7489 135.122 81.9689 135.074 82.2009 135.074C82.4329 135.074 82.6529 135.122 82.8609 135.218C83.0769 135.306 83.2649 135.43 83.4249 135.59C83.5849 135.742 83.7089 135.926 83.7969 136.142C83.8929 136.35 83.9409 136.574 83.9409 136.814ZM97.4496 140.57L92.5296 152.81H90.2016L85.2816 140.57H87.4056C87.6056 140.57 87.7696 140.622 87.8976 140.726C88.0336 140.822 88.1216 140.938 88.1616 141.074L90.8736 148.202C90.9856 148.538 91.0856 148.87 91.1736 149.198C91.2616 149.526 91.3376 149.858 91.4016 150.194C91.4656 149.858 91.5416 149.53 91.6296 149.21C91.7256 148.882 91.8296 148.546 91.9416 148.202L94.7016 141.074C94.7496 140.93 94.8376 140.81 94.9656 140.714C95.0936 140.618 95.2496 140.57 95.4336 140.57H97.4496ZM106.889 145.31C106.889 144.878 106.825 144.478 106.697 144.11C106.577 143.734 106.397 143.41 106.157 143.138C105.917 142.858 105.617 142.642 105.257 142.49C104.905 142.33 104.497 142.25 104.033 142.25C103.097 142.25 102.361 142.518 101.825 143.054C101.289 143.59 100.949 144.342 100.805 145.31H106.889ZM100.733 146.894C100.765 147.59 100.873 148.194 101.057 148.706C101.241 149.21 101.485 149.63 101.789 149.966C102.101 150.302 102.469 150.554 102.893 150.722C103.325 150.882 103.805 150.962 104.333 150.962C104.837 150.962 105.273 150.906 105.641 150.794C106.009 150.674 106.329 150.546 106.601 150.41C106.873 150.266 107.105 150.138 107.297 150.026C107.489 149.906 107.665 149.846 107.825 149.846C108.033 149.846 108.193 149.926 108.305 150.086L109.037 151.034C108.733 151.394 108.389 151.698 108.005 151.946C107.621 152.194 107.213 152.398 106.781 152.558C106.349 152.71 105.905 152.818 105.449 152.882C104.993 152.954 104.549 152.99 104.117 152.99C103.269 152.99 102.481 152.85 101.753 152.57C101.033 152.282 100.405 151.862 99.8691 151.31C99.3411 150.758 98.9251 150.074 98.6211 149.258C98.3251 148.442 98.1771 147.502 98.1771 146.438C98.1771 145.59 98.3091 144.798 98.5731 144.062C98.8451 143.326 99.2291 142.686 99.7251 142.142C100.229 141.598 100.837 141.17 101.549 140.858C102.269 140.538 103.081 140.378 103.985 140.378C104.737 140.378 105.433 140.502 106.073 140.75C106.713 140.99 107.265 141.346 107.729 141.818C108.193 142.29 108.553 142.87 108.809 143.558C109.073 144.238 109.205 145.014 109.205 145.886C109.205 146.286 109.161 146.554 109.073 146.69C108.985 146.826 108.825 146.894 108.593 146.894H100.733ZM127.908 140.57V152.81H126.348C126.004 152.81 125.784 152.646 125.688 152.318L125.496 151.178C125.24 151.45 124.968 151.698 124.68 151.922C124.4 152.146 124.1 152.338 123.78 152.498C123.46 152.658 123.116 152.782 122.748 152.87C122.388 152.958 122 153.002 121.584 153.002C120.912 153.002 120.32 152.89 119.808 152.666C119.296 152.442 118.864 152.126 118.512 151.718C118.168 151.31 117.908 150.822 117.732 150.254C117.556 149.678 117.468 149.046 117.468 148.358V140.57H120.048V148.358C120.048 149.182 120.236 149.822 120.612 150.278C120.996 150.734 121.576 150.962 122.352 150.962C122.92 150.962 123.448 150.834 123.936 150.578C124.432 150.314 124.896 149.954 125.328 149.498V140.57H127.908ZM138.349 142.79C138.285 142.902 138.213 142.982 138.133 143.03C138.053 143.078 137.953 143.102 137.833 143.102C137.697 143.102 137.549 143.062 137.389 142.982C137.229 142.894 137.041 142.798 136.825 142.694C136.609 142.59 136.353 142.498 136.057 142.418C135.769 142.33 135.429 142.286 135.037 142.286C134.717 142.286 134.425 142.326 134.161 142.406C133.905 142.478 133.685 142.586 133.501 142.73C133.325 142.866 133.189 143.03 133.093 143.222C132.997 143.406 132.949 143.606 132.949 143.822C132.949 144.11 133.037 144.35 133.213 144.542C133.389 144.734 133.621 144.902 133.909 145.046C134.197 145.182 134.525 145.306 134.893 145.418C135.261 145.53 135.637 145.65 136.021 145.778C136.405 145.906 136.781 146.054 137.149 146.222C137.517 146.39 137.845 146.598 138.133 146.846C138.421 147.086 138.653 147.382 138.829 147.734C139.005 148.078 139.093 148.498 139.093 148.994C139.093 149.57 138.989 150.102 138.781 150.59C138.573 151.078 138.269 151.502 137.869 151.862C137.469 152.222 136.969 152.502 136.369 152.702C135.777 152.902 135.097 153.002 134.329 153.002C133.905 153.002 133.493 152.962 133.093 152.882C132.701 152.81 132.325 152.71 131.965 152.582C131.613 152.446 131.281 152.286 130.969 152.102C130.665 151.918 130.393 151.718 130.153 151.502L130.753 150.518C130.825 150.398 130.913 150.306 131.017 150.242C131.129 150.17 131.265 150.134 131.425 150.134C131.593 150.134 131.757 150.19 131.917 150.302C132.085 150.406 132.277 150.522 132.493 150.65C132.717 150.778 132.985 150.898 133.297 151.01C133.609 151.114 133.997 151.166 134.461 151.166C134.845 151.166 135.177 151.122 135.457 151.034C135.737 150.938 135.969 150.81 136.153 150.65C136.337 150.49 136.473 150.31 136.561 150.11C136.649 149.902 136.693 149.682 136.693 149.45C136.693 149.138 136.605 148.882 136.429 148.682C136.253 148.482 136.017 148.31 135.721 148.166C135.433 148.022 135.101 147.894 134.725 147.782C134.357 147.67 133.981 147.55 133.597 147.422C133.213 147.294 132.833 147.146 132.457 146.978C132.089 146.81 131.757 146.598 131.461 146.342C131.173 146.078 130.941 145.762 130.765 145.394C130.589 145.018 130.501 144.562 130.501 144.026C130.501 143.538 130.597 143.074 130.789 142.634C130.989 142.194 131.277 141.806 131.653 141.47C132.037 141.134 132.505 140.87 133.057 140.678C133.617 140.478 134.261 140.378 134.989 140.378C135.813 140.378 136.561 140.51 137.233 140.774C137.905 141.038 138.469 141.398 138.925 141.854L138.349 142.79ZM149.545 145.31C149.545 144.878 149.481 144.478 149.353 144.11C149.233 143.734 149.053 143.41 148.813 143.138C148.573 142.858 148.273 142.642 147.913 142.49C147.561 142.33 147.153 142.25 146.689 142.25C145.753 142.25 145.017 142.518 144.481 143.054C143.945 143.59 143.605 144.342 143.461 145.31H149.545ZM143.389 146.894C143.421 147.59 143.529 148.194 143.713 148.706C143.897 149.21 144.141 149.63 144.445 149.966C144.757 150.302 145.125 150.554 145.549 150.722C145.981 150.882 146.461 150.962 146.989 150.962C147.493 150.962 147.929 150.906 148.297 150.794C148.665 150.674 148.985 150.546 149.257 150.41C149.529 150.266 149.761 150.138 149.953 150.026C150.145 149.906 150.321 149.846 150.481 149.846C150.689 149.846 150.849 149.926 150.961 150.086L151.693 151.034C151.389 151.394 151.045 151.698 150.661 151.946C150.277 152.194 149.869 152.398 149.437 152.558C149.005 152.71 148.561 152.818 148.105 152.882C147.649 152.954 147.205 152.99 146.773 152.99C145.925 152.99 145.137 152.85 144.409 152.57C143.689 152.282 143.061 151.862 142.525 151.31C141.997 150.758 141.581 150.074 141.277 149.258C140.981 148.442 140.833 147.502 140.833 146.438C140.833 145.59 140.965 144.798 141.229 144.062C141.501 143.326 141.885 142.686 142.381 142.142C142.885 141.598 143.493 141.17 144.205 140.858C144.925 140.538 145.737 140.378 146.641 140.378C147.393 140.378 148.089 140.502 148.729 140.75C149.369 140.99 149.921 141.346 150.385 141.818C150.849 142.29 151.209 142.87 151.465 143.558C151.729 144.238 151.861 145.014 151.861 145.886C151.861 146.286 151.817 146.554 151.729 146.69C151.641 146.826 151.481 146.894 151.249 146.894H143.389ZM156.703 142.838C157.087 142.062 157.551 141.454 158.095 141.014C158.639 140.566 159.291 140.342 160.051 140.342C160.315 140.342 160.563 140.374 160.795 140.438C161.027 140.494 161.235 140.582 161.419 140.702L161.239 142.646C161.207 142.782 161.155 142.878 161.083 142.934C161.019 142.982 160.931 143.006 160.819 143.006C160.699 143.006 160.527 142.986 160.303 142.946C160.079 142.898 159.843 142.874 159.595 142.874C159.235 142.874 158.915 142.926 158.635 143.03C158.363 143.134 158.115 143.286 157.891 143.486C157.675 143.686 157.483 143.93 157.315 144.218C157.147 144.506 156.991 144.834 156.847 145.202V152.81H154.267V140.57H155.767C156.039 140.57 156.227 140.622 156.331 140.726C156.435 140.822 156.507 140.994 156.547 141.242L156.703 142.838ZM170.364 142.79C170.3 142.902 170.228 142.982 170.148 143.03C170.068 143.078 169.968 143.102 169.848 143.102C169.712 143.102 169.564 143.062 169.404 142.982C169.244 142.894 169.056 142.798 168.84 142.694C168.624 142.59 168.368 142.498 168.072 142.418C167.784 142.33 167.444 142.286 167.052 142.286C166.732 142.286 166.44 142.326 166.176 142.406C165.92 142.478 165.7 142.586 165.516 142.73C165.34 142.866 165.204 143.03 165.108 143.222C165.012 143.406 164.964 143.606 164.964 143.822C164.964 144.11 165.052 144.35 165.228 144.542C165.404 144.734 165.636 144.902 165.924 145.046C166.212 145.182 166.54 145.306 166.908 145.418C167.276 145.53 167.652 145.65 168.036 145.778C168.42 145.906 168.796 146.054 169.164 146.222C169.532 146.39 169.86 146.598 170.148 146.846C170.436 147.086 170.668 147.382 170.844 147.734C171.02 148.078 171.108 148.498 171.108 148.994C171.108 149.57 171.004 150.102 170.796 150.59C170.588 151.078 170.284 151.502 169.884 151.862C169.484 152.222 168.984 152.502 168.384 152.702C167.792 152.902 167.112 153.002 166.344 153.002C165.92 153.002 165.508 152.962 165.108 152.882C164.716 152.81 164.34 152.71 163.98 152.582C163.628 152.446 163.296 152.286 162.984 152.102C162.68 151.918 162.408 151.718 162.168 151.502L162.768 150.518C162.84 150.398 162.928 150.306 163.032 150.242C163.144 150.17 163.28 150.134 163.44 150.134C163.608 150.134 163.772 150.19 163.932 150.302C164.1 150.406 164.292 150.522 164.508 150.65C164.732 150.778 165 150.898 165.312 151.01C165.624 151.114 166.012 151.166 166.476 151.166C166.86 151.166 167.192 151.122 167.472 151.034C167.752 150.938 167.984 150.81 168.168 150.65C168.352 150.49 168.488 150.31 168.576 150.11C168.664 149.902 168.708 149.682 168.708 149.45C168.708 149.138 168.62 148.882 168.444 148.682C168.268 148.482 168.032 148.31 167.736 148.166C167.448 148.022 167.116 147.894 166.74 147.782C166.372 147.67 165.996 147.55 165.612 147.422C165.228 147.294 164.848 147.146 164.472 146.978C164.104 146.81 163.772 146.598 163.476 146.342C163.188 146.078 162.956 145.762 162.78 145.394C162.604 145.018 162.516 144.562 162.516 144.026C162.516 143.538 162.612 143.074 162.804 142.634C163.004 142.194 163.292 141.806 163.668 141.47C164.052 141.134 164.52 140.87 165.072 140.678C165.632 140.478 166.276 140.378 167.004 140.378C167.828 140.378 168.576 140.51 169.248 140.774C169.92 141.038 170.484 141.398 170.94 141.854L170.364 142.79Z" fill="white"/>
<defs>
<clipPath id="clip0_118_1436">
<rect width="141.77" height="115.52" fill="white" transform="translate(15.115 0.290009)"/>
</clipPath>
</defs>
</svg>
