<svg width="171" height="158" viewBox="0 0 171 158" fill="none" xmlns="http://www.w3.org/2000/svg">
<g clip-path="url(#clip0_118_1435)">
<path d="M102.895 10.32C113.505 12.15 126.175 8.39998 134.005 15.8C137.295 18.91 138.865 23.39 140.315 27.68C146.415 45.7 152.505 65.56 145.585 83.29C137.115 104.98 111.665 115.47 88.385 115.8C79.615 115.93 70.445 114.82 63.155 109.94C59.175 107.27 55.935 103.59 51.895 101.01C47.215 98.02 41.645 96.62 36.995 93.58C18.405 81.43 19.885 39.62 28.345 21.08C44.585 -14.52 76.815 5.81998 102.895 10.32Z" fill="#212E7C"/>
<path d="M98.875 33.66C99.245 10.65 101.765 19.86 70.345 18.09V33.66H51.075V97.51H75.475C75.475 78.38 72.405 84.74 95.445 83.72C95.205 108.53 92.695 95.79 118.145 97.51V33.66H98.875Z" fill="#03B1E5"/>
<path d="M90.855 73.87C77.565 73 77.405 78.11 77.955 63.72C91.245 64.59 91.415 59.49 90.855 73.87Z" fill="white"/>
<path d="M90.855 57.89C77.565 57.02 77.405 62.13 77.955 47.74C91.245 48.61 91.415 43.51 90.855 57.89Z" fill="white"/>
<path d="M69.275 73.87C55.985 73 55.825 78.11 56.375 63.72C69.655 64.59 69.825 59.49 69.275 73.87Z" fill="white"/>
<path d="M69.275 57.89C55.985 57.02 55.825 62.13 56.375 47.74C69.655 48.61 69.825 43.51 69.275 57.89Z" fill="white"/>
<path d="M112.445 73.87C99.155 73 98.995 78.11 99.545 63.72C112.835 64.59 112.995 59.49 112.445 73.87Z" fill="white"/>
<path d="M112.445 57.89C99.155 57.02 98.995 62.13 99.545 47.74C112.835 48.61 112.995 43.51 112.445 57.89Z" fill="white"/>
<path d="M96.165 30.93C96.385 44.81 72.835 44.81 73.055 30.93C72.835 17.05 96.385 17.05 96.165 30.93Z" fill="white"/>
<path d="M91.315 28.94C86.155 29.07 86.625 29.46 86.755 24.72C81.605 24.5 82.445 24.5 82.465 28.94H77.905C77.665 33.71 77.675 32.93 82.465 32.91V37.13C87.615 37.35 86.775 37.35 86.755 32.91C91.525 32.93 91.555 33.71 91.315 28.94Z" fill="#FC301D"/>
</g>
<path d="M8.112 147.458C7.192 147.49 6.416 147.566 5.784 147.686C5.152 147.798 4.64 147.946 4.248 148.13C3.856 148.306 3.572 148.518 3.396 148.766C3.228 149.014 3.144 149.286 3.144 149.582C3.144 149.87 3.188 150.118 3.276 150.326C3.372 150.526 3.5 150.694 3.66 150.83C3.828 150.958 4.02 151.054 4.236 151.118C4.46 151.174 4.704 151.202 4.968 151.202C5.64 151.202 6.216 151.078 6.696 150.83C7.184 150.574 7.656 150.206 8.112 149.726V147.458ZM1.272 142.274C2.656 140.986 4.304 140.342 6.216 140.342C6.92 140.342 7.544 140.458 8.088 140.69C8.64 140.914 9.1 141.234 9.468 141.65C9.844 142.066 10.128 142.562 10.32 143.138C10.52 143.706 10.62 144.338 10.62 145.034V152.81H9.468C9.22 152.81 9.032 152.774 8.904 152.702C8.776 152.622 8.668 152.466 8.58 152.234L8.328 151.238C8.016 151.518 7.708 151.77 7.404 151.994C7.1 152.21 6.784 152.394 6.456 152.546C6.136 152.698 5.788 152.81 5.412 152.882C5.044 152.962 4.636 153.002 4.188 153.002C3.692 153.002 3.228 152.934 2.796 152.798C2.372 152.662 2.004 152.458 1.692 152.186C1.38 151.906 1.132 151.562 0.948 151.154C0.772 150.746 0.684 150.266 0.684 149.714C0.684 149.242 0.808 148.782 1.056 148.334C1.312 147.886 1.728 147.486 2.304 147.134C2.888 146.774 3.652 146.478 4.596 146.246C5.548 146.014 6.72 145.882 8.112 145.85V145.034C8.112 144.154 7.924 143.498 7.548 143.066C7.172 142.634 6.62 142.418 5.892 142.418C5.396 142.418 4.98 142.482 4.644 142.61C4.308 142.73 4.016 142.862 3.768 143.006C3.52 143.15 3.3 143.286 3.108 143.414C2.916 143.534 2.712 143.594 2.496 143.594C2.32 143.594 2.168 143.55 2.04 143.462C1.92 143.366 1.82 143.25 1.74 143.114L1.272 142.274ZM17.4023 153.002C16.3863 153.002 15.6023 152.718 15.0503 152.15C14.5063 151.574 14.2343 150.766 14.2343 149.726V142.598H12.8903C12.7463 142.598 12.6223 142.554 12.5183 142.466C12.4143 142.37 12.3623 142.23 12.3623 142.046V141.002L14.3423 140.714L14.9062 137.174C14.9463 137.038 15.0143 136.93 15.1103 136.85C15.2063 136.762 15.3343 136.718 15.4943 136.718H16.8143V140.738H20.2103V142.598H16.8143V149.546C16.8143 149.986 16.9223 150.322 17.1383 150.554C17.3543 150.786 17.6423 150.902 18.0023 150.902C18.2023 150.902 18.3743 150.878 18.5182 150.83C18.6623 150.774 18.7863 150.718 18.8903 150.662C18.9943 150.598 19.0823 150.542 19.1543 150.494C19.2343 150.438 19.3103 150.41 19.3823 150.41C19.5263 150.41 19.6423 150.49 19.7303 150.65L20.4983 151.91C20.0983 152.262 19.6263 152.534 19.0823 152.726C18.5383 152.91 17.9783 153.002 17.4023 153.002ZM31.2684 141.914C31.6844 141.826 32.0804 141.762 32.4564 141.722C32.8404 141.682 33.2084 141.662 33.5604 141.662C34.4644 141.662 35.2604 141.798 35.9484 142.07C36.6444 142.334 37.2244 142.702 37.6884 143.174C38.1604 143.646 38.5124 144.202 38.7444 144.842C38.9844 145.474 39.1044 146.162 39.1044 146.906C39.1044 147.826 38.9444 148.662 38.6244 149.414C38.3044 150.166 37.8604 150.81 37.2924 151.346C36.7244 151.874 36.0524 152.282 35.2764 152.57C34.5084 152.858 33.6764 153.002 32.7804 153.002C32.2524 153.002 31.7484 152.95 31.2684 152.846C30.7964 152.742 30.3524 152.602 29.9364 152.426C29.5204 152.242 29.1364 152.034 28.7844 151.802C28.4324 151.562 28.1164 151.314 27.8364 151.058L28.6284 149.954C28.7964 149.714 29.0204 149.594 29.3004 149.594C29.4764 149.594 29.6684 149.658 29.8764 149.786C30.0844 149.914 30.3244 150.054 30.5964 150.206C30.8764 150.35 31.2044 150.486 31.5804 150.614C31.9564 150.742 32.4044 150.806 32.9244 150.806C33.4924 150.806 34.0004 150.714 34.4484 150.53C34.8964 150.346 35.2724 150.09 35.5764 149.762C35.8884 149.426 36.1244 149.026 36.2844 148.562C36.4444 148.098 36.5244 147.59 36.5244 147.038C36.5244 146.534 36.4484 146.082 36.2964 145.682C36.1524 145.282 35.9324 144.942 35.6364 144.662C35.3484 144.382 34.9844 144.17 34.5444 144.026C34.1044 143.874 33.5964 143.798 33.0204 143.798C32.5964 143.798 32.1604 143.834 31.7124 143.906C31.2724 143.978 30.8244 144.09 30.3684 144.242L28.7604 143.786L30.1764 135.53H38.5404V136.646C38.5404 137.014 38.4244 137.314 38.1924 137.546C37.9604 137.778 37.5724 137.894 37.0284 137.894H31.9644L31.2684 141.914ZM53.8303 144.17C53.8303 145.682 53.6663 146.99 53.3383 148.094C53.0183 149.198 52.5743 150.114 52.0063 150.842C51.4383 151.57 50.7703 152.11 50.0023 152.462C49.2343 152.814 48.4063 152.99 47.5183 152.99C46.6303 152.99 45.8023 152.814 45.0343 152.462C44.2663 152.11 43.5983 151.57 43.0303 150.842C42.4703 150.114 42.0303 149.198 41.7103 148.094C41.3903 146.99 41.2303 145.682 41.2303 144.17C41.2303 142.658 41.3903 141.35 41.7103 140.246C42.0303 139.134 42.4703 138.218 43.0303 137.498C43.5983 136.77 44.2663 136.23 45.0343 135.878C45.8023 135.518 46.6303 135.338 47.5183 135.338C48.4063 135.338 49.2343 135.518 50.0023 135.878C50.7703 136.23 51.4383 136.77 52.0063 137.498C52.5743 138.218 53.0183 139.134 53.3383 140.246C53.6663 141.35 53.8303 142.658 53.8303 144.17ZM51.1663 144.17C51.1663 142.89 51.0623 141.826 50.8543 140.978C50.6543 140.122 50.3863 139.438 50.0503 138.926C49.7143 138.414 49.3263 138.05 48.8863 137.834C48.4463 137.618 47.9903 137.51 47.5183 137.51C47.0383 137.51 46.5783 137.618 46.1383 137.834C45.7063 138.05 45.3223 138.414 44.9863 138.926C44.6503 139.438 44.3823 140.122 44.1823 140.978C43.9823 141.826 43.8823 142.89 43.8823 144.17C43.8823 145.45 43.9823 146.518 44.1823 147.374C44.3823 148.222 44.6503 148.902 44.9863 149.414C45.3223 149.926 45.7063 150.29 46.1383 150.506C46.5783 150.722 47.0383 150.83 47.5183 150.83C47.9903 150.83 48.4463 150.722 48.8863 150.506C49.3263 150.29 49.7143 149.926 50.0503 149.414C50.3863 148.902 50.6543 148.222 50.8543 147.374C51.0623 146.518 51.1663 145.45 51.1663 144.17ZM67.7522 144.17C67.7522 145.682 67.5882 146.99 67.2602 148.094C66.9402 149.198 66.4962 150.114 65.9282 150.842C65.3602 151.57 64.6922 152.11 63.9242 152.462C63.1562 152.814 62.3282 152.99 61.4402 152.99C60.5522 152.99 59.7242 152.814 58.9562 152.462C58.1882 152.11 57.5202 151.57 56.9522 150.842C56.3922 150.114 55.9522 149.198 55.6322 148.094C55.3122 146.99 55.1522 145.682 55.1522 144.17C55.1522 142.658 55.3122 141.35 55.6322 140.246C55.9522 139.134 56.3922 138.218 56.9522 137.498C57.5202 136.77 58.1882 136.23 58.9562 135.878C59.7242 135.518 60.5522 135.338 61.4402 135.338C62.3282 135.338 63.1562 135.518 63.9242 135.878C64.6922 136.23 65.3602 136.77 65.9282 137.498C66.4962 138.218 66.9402 139.134 67.2602 140.246C67.5882 141.35 67.7522 142.658 67.7522 144.17ZM65.0882 144.17C65.0882 142.89 64.9842 141.826 64.7762 140.978C64.5762 140.122 64.3082 139.438 63.9722 138.926C63.6362 138.414 63.2482 138.05 62.8082 137.834C62.3682 137.618 61.9122 137.51 61.4402 137.51C60.9602 137.51 60.5002 137.618 60.0602 137.834C59.6282 138.05 59.2442 138.414 58.9082 138.926C58.5722 139.438 58.3042 140.122 58.1042 140.978C57.9042 141.826 57.8042 142.89 57.8042 144.17C57.8042 145.45 57.9042 146.518 58.1042 147.374C58.3042 148.222 58.5722 148.902 58.9082 149.414C59.2442 149.926 59.6282 150.29 60.0602 150.506C60.5002 150.722 60.9602 150.83 61.4402 150.83C61.9122 150.83 62.3682 150.722 62.8082 150.506C63.2482 150.29 63.6362 149.926 63.9722 149.414C64.3082 148.902 64.5762 148.222 64.7762 147.374C64.9842 146.518 65.0882 145.45 65.0882 144.17ZM81.1821 145.73H76.4181V150.758H74.3181V145.73H69.5781V143.786H74.3181V138.77H76.4181V143.786H81.1821V145.73ZM102.365 148.958C102.517 148.958 102.649 149.018 102.761 149.138L103.877 150.35C103.173 151.198 102.309 151.854 101.285 152.318C100.261 152.774 99.0365 153.002 97.6125 153.002C96.3485 153.002 95.2045 152.786 94.1805 152.354C93.1645 151.914 92.2965 151.306 91.5765 150.53C90.8565 149.746 90.3005 148.814 89.9085 147.734C89.5245 146.654 89.3325 145.466 89.3325 144.17C89.3325 142.874 89.5365 141.686 89.9445 140.606C90.3605 139.518 90.9405 138.586 91.6845 137.81C92.4365 137.026 93.3325 136.418 94.3725 135.986C95.4205 135.554 96.5725 135.338 97.8285 135.338C99.0765 135.338 100.177 135.542 101.129 135.95C102.089 136.35 102.921 136.886 103.625 137.558L102.701 138.866C102.637 138.954 102.561 139.03 102.473 139.094C102.385 139.158 102.265 139.19 102.113 139.19C101.953 139.19 101.769 139.118 101.561 138.974C101.361 138.822 101.101 138.658 100.781 138.482C100.469 138.298 100.073 138.134 99.5925 137.99C99.1205 137.838 98.5285 137.762 97.8165 137.762C96.9925 137.762 96.2365 137.906 95.5485 138.194C94.8605 138.482 94.2685 138.902 93.7725 139.454C93.2765 140.006 92.8885 140.678 92.6085 141.47C92.3365 142.262 92.2005 143.162 92.2005 144.17C92.2005 145.186 92.3445 146.094 92.6325 146.894C92.9205 147.686 93.3165 148.358 93.8205 148.91C94.3245 149.454 94.9165 149.87 95.5965 150.158C96.2765 150.446 97.0085 150.59 97.7925 150.59C98.2725 150.59 98.7005 150.566 99.0765 150.518C99.4605 150.462 99.8125 150.378 100.133 150.266C100.453 150.146 100.753 149.998 101.033 149.822C101.321 149.646 101.605 149.43 101.885 149.174C102.045 149.03 102.205 148.958 102.365 148.958ZM113.592 145.31C113.592 144.878 113.528 144.478 113.4 144.11C113.28 143.734 113.1 143.41 112.86 143.138C112.62 142.858 112.32 142.642 111.96 142.49C111.608 142.33 111.2 142.25 110.736 142.25C109.8 142.25 109.064 142.518 108.528 143.054C107.992 143.59 107.652 144.342 107.508 145.31H113.592ZM107.436 146.894C107.468 147.59 107.576 148.194 107.76 148.706C107.944 149.21 108.188 149.63 108.492 149.966C108.804 150.302 109.172 150.554 109.596 150.722C110.028 150.882 110.508 150.962 111.036 150.962C111.54 150.962 111.976 150.906 112.344 150.794C112.712 150.674 113.032 150.546 113.304 150.41C113.576 150.266 113.808 150.138 114 150.026C114.192 149.906 114.368 149.846 114.528 149.846C114.736 149.846 114.896 149.926 115.008 150.086L115.74 151.034C115.436 151.394 115.092 151.698 114.708 151.946C114.324 152.194 113.916 152.398 113.484 152.558C113.052 152.71 112.608 152.818 112.152 152.882C111.696 152.954 111.252 152.99 110.82 152.99C109.972 152.99 109.184 152.85 108.456 152.57C107.736 152.282 107.108 151.862 106.572 151.31C106.044 150.758 105.628 150.074 105.324 149.258C105.028 148.442 104.88 147.502 104.88 146.438C104.88 145.59 105.012 144.798 105.276 144.062C105.548 143.326 105.932 142.686 106.428 142.142C106.932 141.598 107.54 141.17 108.252 140.858C108.972 140.538 109.784 140.378 110.688 140.378C111.44 140.378 112.136 140.502 112.776 140.75C113.416 140.99 113.968 141.346 114.432 141.818C114.896 142.29 115.256 142.87 115.512 143.558C115.776 144.238 115.908 145.014 115.908 145.886C115.908 146.286 115.864 146.554 115.776 146.69C115.688 146.826 115.528 146.894 115.296 146.894H107.436ZM120.726 142.19C120.99 141.918 121.262 141.674 121.542 141.458C121.83 141.234 122.134 141.042 122.454 140.882C122.774 140.722 123.114 140.598 123.474 140.51C123.834 140.422 124.226 140.378 124.65 140.378C125.322 140.378 125.91 140.49 126.414 140.714C126.926 140.938 127.354 141.254 127.698 141.662C128.05 142.07 128.314 142.562 128.49 143.138C128.666 143.706 128.754 144.334 128.754 145.022V152.81H126.186V145.022C126.186 144.198 125.994 143.558 125.61 143.102C125.234 142.646 124.658 142.418 123.882 142.418C123.306 142.418 122.77 142.55 122.274 142.814C121.786 143.078 121.326 143.438 120.894 143.894V152.81H118.314V140.57H119.874C120.226 140.57 120.45 140.734 120.546 141.062L120.726 142.19ZM135.527 153.002C134.511 153.002 133.727 152.718 133.175 152.15C132.631 151.574 132.359 150.766 132.359 149.726V142.598H131.015C130.871 142.598 130.747 142.554 130.643 142.466C130.539 142.37 130.487 142.23 130.487 142.046V141.002L132.467 140.714L133.031 137.174C133.071 137.038 133.139 136.93 133.235 136.85C133.331 136.762 133.459 136.718 133.619 136.718H134.939V140.738H138.335V142.598H134.939V149.546C134.939 149.986 135.047 150.322 135.263 150.554C135.479 150.786 135.767 150.902 136.127 150.902C136.327 150.902 136.499 150.878 136.643 150.83C136.787 150.774 136.911 150.718 137.015 150.662C137.119 150.598 137.207 150.542 137.279 150.494C137.359 150.438 137.435 150.41 137.507 150.41C137.651 150.41 137.767 150.49 137.855 150.65L138.623 151.91C138.223 152.262 137.751 152.534 137.207 152.726C136.663 152.91 136.103 153.002 135.527 153.002ZM148.303 145.31C148.303 144.878 148.239 144.478 148.111 144.11C147.991 143.734 147.811 143.41 147.571 143.138C147.331 142.858 147.031 142.642 146.671 142.49C146.319 142.33 145.911 142.25 145.447 142.25C144.511 142.25 143.775 142.518 143.239 143.054C142.703 143.59 142.363 144.342 142.219 145.31H148.303ZM142.147 146.894C142.179 147.59 142.287 148.194 142.471 148.706C142.655 149.21 142.899 149.63 143.203 149.966C143.515 150.302 143.883 150.554 144.307 150.722C144.739 150.882 145.219 150.962 145.747 150.962C146.251 150.962 146.687 150.906 147.055 150.794C147.423 150.674 147.743 150.546 148.015 150.41C148.287 150.266 148.519 150.138 148.711 150.026C148.903 149.906 149.079 149.846 149.239 149.846C149.447 149.846 149.607 149.926 149.719 150.086L150.451 151.034C150.147 151.394 149.803 151.698 149.419 151.946C149.035 152.194 148.627 152.398 148.195 152.558C147.763 152.71 147.319 152.818 146.863 152.882C146.407 152.954 145.963 152.99 145.531 152.99C144.683 152.99 143.895 152.85 143.167 152.57C142.447 152.282 141.819 151.862 141.283 151.31C140.755 150.758 140.339 150.074 140.035 149.258C139.739 148.442 139.591 147.502 139.591 146.438C139.591 145.59 139.723 144.798 139.987 144.062C140.259 143.326 140.643 142.686 141.139 142.142C141.643 141.598 142.251 141.17 142.963 140.858C143.683 140.538 144.495 140.378 145.399 140.378C146.151 140.378 146.847 140.502 147.487 140.75C148.127 140.99 148.679 141.346 149.143 141.818C149.607 142.29 149.967 142.87 150.223 143.558C150.487 144.238 150.619 145.014 150.619 145.886C150.619 146.286 150.575 146.554 150.487 146.69C150.399 146.826 150.239 146.894 150.007 146.894H142.147ZM155.461 142.838C155.845 142.062 156.309 141.454 156.853 141.014C157.397 140.566 158.049 140.342 158.809 140.342C159.073 140.342 159.321 140.374 159.553 140.438C159.785 140.494 159.993 140.582 160.177 140.702L159.997 142.646C159.965 142.782 159.913 142.878 159.841 142.934C159.777 142.982 159.689 143.006 159.577 143.006C159.457 143.006 159.285 142.986 159.061 142.946C158.837 142.898 158.601 142.874 158.353 142.874C157.993 142.874 157.673 142.926 157.393 143.03C157.121 143.134 156.873 143.286 156.649 143.486C156.433 143.686 156.241 143.93 156.073 144.218C155.905 144.506 155.749 144.834 155.605 145.202V152.81H153.025V140.57H154.525C154.797 140.57 154.985 140.622 155.089 140.726C155.193 140.822 155.265 140.994 155.305 141.242L155.461 142.838ZM169.122 142.79C169.058 142.902 168.986 142.982 168.906 143.03C168.826 143.078 168.726 143.102 168.606 143.102C168.47 143.102 168.322 143.062 168.162 142.982C168.002 142.894 167.814 142.798 167.598 142.694C167.382 142.59 167.126 142.498 166.83 142.418C166.542 142.33 166.202 142.286 165.81 142.286C165.49 142.286 165.198 142.326 164.934 142.406C164.678 142.478 164.458 142.586 164.274 142.73C164.098 142.866 163.962 143.03 163.866 143.222C163.77 143.406 163.722 143.606 163.722 143.822C163.722 144.11 163.81 144.35 163.986 144.542C164.162 144.734 164.394 144.902 164.682 145.046C164.97 145.182 165.298 145.306 165.666 145.418C166.034 145.53 166.41 145.65 166.794 145.778C167.178 145.906 167.554 146.054 167.922 146.222C168.29 146.39 168.618 146.598 168.906 146.846C169.194 147.086 169.426 147.382 169.602 147.734C169.778 148.078 169.866 148.498 169.866 148.994C169.866 149.57 169.762 150.102 169.554 150.59C169.346 151.078 169.042 151.502 168.642 151.862C168.242 152.222 167.742 152.502 167.142 152.702C166.55 152.902 165.87 153.002 165.102 153.002C164.678 153.002 164.266 152.962 163.866 152.882C163.474 152.81 163.098 152.71 162.738 152.582C162.386 152.446 162.054 152.286 161.742 152.102C161.438 151.918 161.166 151.718 160.926 151.502L161.526 150.518C161.598 150.398 161.686 150.306 161.79 150.242C161.902 150.17 162.038 150.134 162.198 150.134C162.366 150.134 162.53 150.19 162.69 150.302C162.858 150.406 163.05 150.522 163.266 150.65C163.49 150.778 163.758 150.898 164.07 151.01C164.382 151.114 164.77 151.166 165.234 151.166C165.618 151.166 165.95 151.122 166.23 151.034C166.51 150.938 166.742 150.81 166.926 150.65C167.11 150.49 167.246 150.31 167.334 150.11C167.422 149.902 167.466 149.682 167.466 149.45C167.466 149.138 167.378 148.882 167.202 148.682C167.026 148.482 166.79 148.31 166.494 148.166C166.206 148.022 165.874 147.894 165.498 147.782C165.13 147.67 164.754 147.55 164.37 147.422C163.986 147.294 163.606 147.146 163.23 146.978C162.862 146.81 162.53 146.598 162.234 146.342C161.946 146.078 161.714 145.762 161.538 145.394C161.362 145.018 161.274 144.562 161.274 144.026C161.274 143.538 161.37 143.074 161.562 142.634C161.762 142.194 162.05 141.806 162.426 141.47C162.81 141.134 163.278 140.87 163.83 140.678C164.39 140.478 165.034 140.378 165.762 140.378C166.586 140.378 167.334 140.51 168.006 140.774C168.678 141.038 169.242 141.398 169.698 141.854L169.122 142.79Z" fill="white"/>
<defs>
<clipPath id="clip0_118_1435">
<rect width="126.31" height="115.35" fill="white" transform="translate(22.345 0.459991)"/>
</clipPath>
</defs>
</svg>
