<svg width="170" height="160" viewBox="0 0 170 160" fill="none" xmlns="http://www.w3.org/2000/svg">
<g clip-path="url(#clip0_118_1438)">
<path d="M58.14 9.07001C72.46 -2.76999 95.1 -3.04999 109.71 8.44001C112.78 10.85 115.54 13.73 118.99 15.56C121.94 17.12 125.26 17.84 128.53 18.54C132.99 19.49 137.46 20.45 141.92 21.4C144.89 22.04 147.99 22.73 150.33 24.67C152.94 26.84 154.19 30.23 154.95 33.54C157.94 46.66 154.52 61.09 145.97 71.47C142.2 76.04 137.45 79.97 135.02 85.37C132.45 91.09 132.82 97.8 130.25 103.53C125.91 113.18 114.54 117.46 104.06 118.9C87.82 121.13 71.32 118.91 55.18 116.06C39.71 113.32 22.1 108.24 15.97 93.78C10.26 80.3 18.12 48.09 24.38 35.47C30.21 23.71 46.67 18.56 58.14 9.07001Z" fill="#212E7C"/>
<path d="M121.15 67.53C121.93 120.29 39.19 120.04 39.98 67.53C39.16 14.91 121.95 14.85 121.15 67.53Z" fill="#BDF3FF"/>
<path d="M121.15 67.53C121.15 70.17 120.89 72.8 120.38 75.39C119.28 69.42 120.47 56.88 112 56.9C113.8 60.63 115.27 75.64 109.07 66.86C111.49 60.23 96.77 52.99 96.85 60.04C108.98 58.3 93.1 72.25 90.55 63.8C80.54 39.29 81 75.66 92.2 68.87C102.19 68.8 86.39 77.86 87.07 82.32C87.51 84.67 88.61 87.22 86.18 88.9C80.94 94.03 72.4 105.44 73.15 89.88C67.32 85.98 71.72 76.92 66.07 73.45C61.91 72.87 56.42 73.31 53.89 69.07C57.77 36.62 67.97 56.49 80.07 54.82C88.17 52.99 82.64 49.23 77.38 49.7C75.32 48.46 75.75 44.7 73.49 43.9C71.1 42.97 66.71 48.25 65.31 44.4C65.42 41.27 70.19 42.98 71.66 41.21C72.82 38.76 72.73 34.71 76.39 37.14C80.83 39.25 77.4 32.62 81.08 32.8C87.4 36.29 95.06 28.48 85.29 27.21C105.74 29.62 121.15 46.94 121.15 67.53Z" fill="#03B1E5"/>
<path d="M112.46 69.77C112.2 68.43 113.51 65.26 113.47 63.23C113.97 65.33 114.75 68.83 112.46 69.77Z" fill="#6BB3D9"/>
<path d="M72.34 27.78C61.96 28.11 36.59 48.71 44.81 55.22C48.81 49.61 52.83 41.56 58.71 37.72C60.06 37.42 62.58 36.49 61.61 34.75C63.04 37.09 79.16 29.46 72.34 27.78Z" fill="#03B1E5"/>
<path d="M53.97 39.29C34.6 39.6 50.13 65.8 53.97 69.53C57.8 65.74 73.35 39.64 53.97 39.29Z" fill="#FD7822"/>
<path d="M53.67 43.05C62.4 42.53 63.02 56.25 54.28 56.52C45.54 57.04 44.93 43.32 53.67 43.05Z" fill="#F4610F"/>
<path d="M116.16 28.68C96.79 28.99 112.32 55.19 116.16 58.92C119.99 55.13 135.53 29.03 116.16 28.68Z" fill="#FDC234"/>
<path d="M115.85 32.45C124.58 31.93 125.2 45.65 116.46 45.92C107.73 46.43 107.11 32.71 115.85 32.45Z" fill="#F4B019"/>
<path d="M85.31 13.18C65.94 13.49 81.47 39.69 85.31 43.42C89.14 39.63 104.69 13.53 85.31 13.18Z" fill="#FC301D"/>
<path d="M85.01 16.94C93.74 16.42 94.36 30.14 85.62 30.41C76.88 30.93 76.26 17.2 85.01 16.94Z" fill="#E2180E"/>
</g>
<path d="M8.112 149.458C7.192 149.49 6.416 149.566 5.784 149.686C5.152 149.798 4.64 149.946 4.248 150.13C3.856 150.306 3.572 150.518 3.396 150.766C3.228 151.014 3.144 151.286 3.144 151.582C3.144 151.87 3.188 152.118 3.276 152.326C3.372 152.526 3.5 152.694 3.66 152.83C3.828 152.958 4.02 153.054 4.236 153.118C4.46 153.174 4.704 153.202 4.968 153.202C5.64 153.202 6.216 153.078 6.696 152.83C7.184 152.574 7.656 152.206 8.112 151.726V149.458ZM1.272 144.274C2.656 142.986 4.304 142.342 6.216 142.342C6.92 142.342 7.544 142.458 8.088 142.69C8.64 142.914 9.1 143.234 9.468 143.65C9.844 144.066 10.128 144.562 10.32 145.138C10.52 145.706 10.62 146.338 10.62 147.034V154.81H9.468C9.22 154.81 9.032 154.774 8.904 154.702C8.776 154.622 8.668 154.466 8.58 154.234L8.328 153.238C8.016 153.518 7.708 153.77 7.404 153.994C7.1 154.21 6.784 154.394 6.456 154.546C6.136 154.698 5.788 154.81 5.412 154.882C5.044 154.962 4.636 155.002 4.188 155.002C3.692 155.002 3.228 154.934 2.796 154.798C2.372 154.662 2.004 154.458 1.692 154.186C1.38 153.906 1.132 153.562 0.948 153.154C0.772 152.746 0.684 152.266 0.684 151.714C0.684 151.242 0.808 150.782 1.056 150.334C1.312 149.886 1.728 149.486 2.304 149.134C2.888 148.774 3.652 148.478 4.596 148.246C5.548 148.014 6.72 147.882 8.112 147.85V147.034C8.112 146.154 7.924 145.498 7.548 145.066C7.172 144.634 6.62 144.418 5.892 144.418C5.396 144.418 4.98 144.482 4.644 144.61C4.308 144.73 4.016 144.862 3.768 145.006C3.52 145.15 3.3 145.286 3.108 145.414C2.916 145.534 2.712 145.594 2.496 145.594C2.32 145.594 2.168 145.55 2.04 145.462C1.92 145.366 1.82 145.25 1.74 145.114L1.272 144.274ZM22.2943 144.97C22.2143 145.074 22.1383 145.154 22.0663 145.21C21.9943 145.266 21.8903 145.294 21.7543 145.294C21.6183 145.294 21.4743 145.246 21.3223 145.15C21.1783 145.054 21.0023 144.95 20.7943 144.838C20.5943 144.718 20.3503 144.61 20.0623 144.514C19.7743 144.418 19.4143 144.37 18.9823 144.37C18.4223 144.37 17.9303 144.47 17.5063 144.67C17.0903 144.87 16.7383 145.158 16.4503 145.534C16.1703 145.902 15.9583 146.354 15.8143 146.89C15.6783 147.418 15.6103 148.014 15.6103 148.678C15.6103 149.366 15.6863 149.978 15.8383 150.514C15.9903 151.05 16.2063 151.502 16.4863 151.87C16.7743 152.238 17.1183 152.518 17.5183 152.71C17.9263 152.902 18.3823 152.998 18.8863 152.998C19.3823 152.998 19.7863 152.938 20.0983 152.818C20.4103 152.698 20.6703 152.566 20.8783 152.422C21.0863 152.278 21.2623 152.146 21.4063 152.026C21.5583 151.906 21.7183 151.846 21.8863 151.846C22.0943 151.846 22.2543 151.926 22.3663 152.086L23.0983 153.034C22.8023 153.394 22.4743 153.698 22.1143 153.946C21.7543 154.194 21.3743 154.398 20.9743 154.558C20.5743 154.71 20.1583 154.818 19.7263 154.882C19.2943 154.954 18.8583 154.99 18.4183 154.99C17.6583 154.99 16.9463 154.85 16.2823 154.57C15.6263 154.282 15.0503 153.87 14.5543 153.334C14.0663 152.79 13.6783 152.13 13.3903 151.354C13.1103 150.57 12.9703 149.678 12.9703 148.678C12.9703 147.774 13.0983 146.938 13.3543 146.17C13.6103 145.394 13.9823 144.726 14.4703 144.166C14.9663 143.606 15.5783 143.17 16.3063 142.858C17.0343 142.538 17.8743 142.378 18.8263 142.378C19.7143 142.378 20.4943 142.522 21.1663 142.81C21.8463 143.098 22.4503 143.506 22.9783 144.034L22.2943 144.97ZM27.6096 144.838C27.9936 144.062 28.4576 143.454 29.0016 143.014C29.5456 142.566 30.1976 142.342 30.9576 142.342C31.2216 142.342 31.4696 142.374 31.7016 142.438C31.9336 142.494 32.1416 142.582 32.3256 142.702L32.1456 144.646C32.1136 144.782 32.0616 144.878 31.9896 144.934C31.9256 144.982 31.8376 145.006 31.7256 145.006C31.6056 145.006 31.4336 144.986 31.2096 144.946C30.9856 144.898 30.7496 144.874 30.5016 144.874C30.1416 144.874 29.8216 144.926 29.5416 145.03C29.2696 145.134 29.0216 145.286 28.7976 145.486C28.5816 145.686 28.3896 145.93 28.2216 146.218C28.0536 146.506 27.8976 146.834 27.7536 147.202V154.81H25.1736V142.57H26.6736C26.9456 142.57 27.1336 142.622 27.2376 142.726C27.3416 142.822 27.4136 142.994 27.4536 143.242L27.6096 144.838ZM38.9031 142.378C39.8071 142.378 40.6231 142.526 41.3511 142.822C42.0871 143.118 42.7111 143.538 43.2231 144.082C43.7431 144.626 44.1431 145.286 44.4231 146.062C44.7031 146.838 44.8431 147.71 44.8431 148.678C44.8431 149.646 44.7031 150.518 44.4231 151.294C44.1431 152.07 43.7431 152.734 43.2231 153.286C42.7111 153.83 42.0871 154.25 41.3511 154.546C40.6231 154.842 39.8071 154.99 38.9031 154.99C37.9911 154.99 37.1671 154.842 36.4311 154.546C35.7031 154.25 35.0791 153.83 34.5591 153.286C34.0391 152.734 33.6391 152.07 33.3591 151.294C33.0791 150.518 32.9391 149.646 32.9391 148.678C32.9391 147.71 33.0791 146.838 33.3591 146.062C33.6391 145.286 34.0391 144.626 34.5591 144.082C35.0791 143.538 35.7031 143.118 36.4311 142.822C37.1671 142.526 37.9911 142.378 38.9031 142.378ZM38.9031 152.974C40.0071 152.974 40.8271 152.606 41.3631 151.87C41.9071 151.126 42.1791 150.066 42.1791 148.69C42.1791 147.314 41.9071 146.254 41.3631 145.51C40.8271 144.758 40.0071 144.382 38.9031 144.382C37.7831 144.382 36.9511 144.758 36.4071 145.51C35.8631 146.254 35.5911 147.314 35.5911 148.69C35.5911 150.066 35.8631 151.126 36.4071 151.87C36.9511 152.606 37.7831 152.974 38.9031 152.974ZM54.63 144.79C54.566 144.902 54.494 144.982 54.414 145.03C54.334 145.078 54.234 145.102 54.114 145.102C53.978 145.102 53.83 145.062 53.67 144.982C53.51 144.894 53.322 144.798 53.106 144.694C52.89 144.59 52.634 144.498 52.338 144.418C52.05 144.33 51.71 144.286 51.318 144.286C50.998 144.286 50.706 144.326 50.442 144.406C50.186 144.478 49.966 144.586 49.782 144.73C49.606 144.866 49.47 145.03 49.374 145.222C49.278 145.406 49.23 145.606 49.23 145.822C49.23 146.11 49.318 146.35 49.494 146.542C49.67 146.734 49.902 146.902 50.19 147.046C50.478 147.182 50.806 147.306 51.174 147.418C51.542 147.53 51.918 147.65 52.302 147.778C52.686 147.906 53.062 148.054 53.43 148.222C53.798 148.39 54.126 148.598 54.414 148.846C54.702 149.086 54.934 149.382 55.11 149.734C55.286 150.078 55.374 150.498 55.374 150.994C55.374 151.57 55.27 152.102 55.062 152.59C54.854 153.078 54.55 153.502 54.15 153.862C53.75 154.222 53.25 154.502 52.65 154.702C52.058 154.902 51.378 155.002 50.61 155.002C50.186 155.002 49.774 154.962 49.374 154.882C48.982 154.81 48.606 154.71 48.246 154.582C47.894 154.446 47.562 154.286 47.25 154.102C46.946 153.918 46.674 153.718 46.434 153.502L47.034 152.518C47.106 152.398 47.194 152.306 47.298 152.242C47.41 152.17 47.546 152.134 47.706 152.134C47.874 152.134 48.038 152.19 48.198 152.302C48.366 152.406 48.558 152.522 48.774 152.65C48.998 152.778 49.266 152.898 49.578 153.01C49.89 153.114 50.278 153.166 50.742 153.166C51.126 153.166 51.458 153.122 51.738 153.034C52.018 152.938 52.25 152.81 52.434 152.65C52.618 152.49 52.754 152.31 52.842 152.11C52.93 151.902 52.974 151.682 52.974 151.45C52.974 151.138 52.886 150.882 52.71 150.682C52.534 150.482 52.298 150.31 52.002 150.166C51.714 150.022 51.382 149.894 51.006 149.782C50.638 149.67 50.262 149.55 49.878 149.422C49.494 149.294 49.114 149.146 48.738 148.978C48.37 148.81 48.038 148.598 47.742 148.342C47.454 148.078 47.222 147.762 47.046 147.394C46.87 147.018 46.782 146.562 46.782 146.026C46.782 145.538 46.878 145.074 47.07 144.634C47.27 144.194 47.558 143.806 47.934 143.47C48.318 143.134 48.786 142.87 49.338 142.678C49.898 142.478 50.542 142.378 51.27 142.378C52.094 142.378 52.842 142.51 53.514 142.774C54.186 143.038 54.75 143.398 55.206 143.854L54.63 144.79ZM65.1066 144.79C65.0426 144.902 64.9706 144.982 64.8906 145.03C64.8106 145.078 64.7106 145.102 64.5906 145.102C64.4546 145.102 64.3066 145.062 64.1466 144.982C63.9866 144.894 63.7986 144.798 63.5826 144.694C63.3666 144.59 63.1106 144.498 62.8146 144.418C62.5266 144.33 62.1866 144.286 61.7946 144.286C61.4746 144.286 61.1826 144.326 60.9186 144.406C60.6626 144.478 60.4426 144.586 60.2586 144.73C60.0826 144.866 59.9466 145.03 59.8506 145.222C59.7546 145.406 59.7066 145.606 59.7066 145.822C59.7066 146.11 59.7946 146.35 59.9706 146.542C60.1466 146.734 60.3786 146.902 60.6666 147.046C60.9546 147.182 61.2826 147.306 61.6506 147.418C62.0186 147.53 62.3946 147.65 62.7786 147.778C63.1626 147.906 63.5386 148.054 63.9066 148.222C64.2746 148.39 64.6026 148.598 64.8906 148.846C65.1786 149.086 65.4106 149.382 65.5866 149.734C65.7626 150.078 65.8506 150.498 65.8506 150.994C65.8506 151.57 65.7466 152.102 65.5386 152.59C65.3306 153.078 65.0266 153.502 64.6266 153.862C64.2266 154.222 63.7266 154.502 63.1266 154.702C62.5346 154.902 61.8546 155.002 61.0866 155.002C60.6626 155.002 60.2506 154.962 59.8506 154.882C59.4586 154.81 59.0826 154.71 58.7226 154.582C58.3706 154.446 58.0386 154.286 57.7266 154.102C57.4226 153.918 57.1506 153.718 56.9106 153.502L57.5106 152.518C57.5826 152.398 57.6706 152.306 57.7746 152.242C57.8866 152.17 58.0226 152.134 58.1826 152.134C58.3506 152.134 58.5146 152.19 58.6746 152.302C58.8426 152.406 59.0346 152.522 59.2506 152.65C59.4746 152.778 59.7426 152.898 60.0546 153.01C60.3666 153.114 60.7546 153.166 61.2186 153.166C61.6026 153.166 61.9346 153.122 62.2146 153.034C62.4946 152.938 62.7266 152.81 62.9106 152.65C63.0946 152.49 63.2306 152.31 63.3186 152.11C63.4066 151.902 63.4506 151.682 63.4506 151.45C63.4506 151.138 63.3626 150.882 63.1866 150.682C63.0106 150.482 62.7746 150.31 62.4786 150.166C62.1906 150.022 61.8586 149.894 61.4826 149.782C61.1146 149.67 60.7386 149.55 60.3546 149.422C59.9706 149.294 59.5906 149.146 59.2146 148.978C58.8466 148.81 58.5146 148.598 58.2186 148.342C57.9306 148.078 57.6986 147.762 57.5226 147.394C57.3466 147.018 57.2586 146.562 57.2586 146.026C57.2586 145.538 57.3546 145.074 57.5466 144.634C57.7466 144.194 58.0346 143.806 58.4106 143.47C58.7946 143.134 59.2626 142.87 59.8146 142.678C60.3746 142.478 61.0186 142.378 61.7466 142.378C62.5706 142.378 63.3186 142.51 63.9906 142.774C64.6626 143.038 65.2266 143.398 65.6826 143.854L65.1066 144.79ZM84.4877 152.374C84.7677 152.374 84.9877 152.458 85.1477 152.626C85.3077 152.786 85.3877 152.994 85.3877 153.25V154.81H73.6997V153.934C73.6997 153.758 73.7357 153.574 73.8077 153.382C73.8797 153.19 73.9957 153.014 74.1557 152.854L79.5317 147.466C79.9877 147.01 80.3917 146.574 80.7437 146.158C81.1037 145.742 81.4077 145.326 81.6557 144.91C81.9117 144.494 82.1037 144.074 82.2317 143.65C82.3677 143.218 82.4357 142.766 82.4357 142.294C82.4357 141.838 82.3637 141.438 82.2197 141.094C82.0837 140.742 81.8917 140.454 81.6437 140.23C81.4037 139.998 81.1117 139.826 80.7677 139.714C80.4317 139.594 80.0597 139.534 79.6517 139.534C79.2597 139.534 78.8957 139.59 78.5597 139.702C78.2317 139.814 77.9357 139.97 77.6717 140.17C77.4157 140.37 77.1997 140.61 77.0237 140.89C76.8557 141.162 76.7317 141.462 76.6517 141.79C76.5317 142.118 76.3757 142.338 76.1837 142.45C75.9997 142.562 75.7277 142.586 75.3677 142.522L74.0117 142.282C74.1317 141.466 74.3557 140.75 74.6837 140.134C75.0197 139.518 75.4397 139.006 75.9437 138.598C76.4477 138.182 77.0237 137.87 77.6717 137.662C78.3277 137.446 79.0357 137.338 79.7957 137.338C80.5637 137.338 81.2677 137.454 81.9077 137.686C82.5557 137.91 83.1117 138.234 83.5757 138.658C84.0477 139.074 84.4157 139.582 84.6797 140.182C84.9437 140.782 85.0757 141.458 85.0757 142.21C85.0757 142.85 84.9797 143.442 84.7877 143.986C84.6037 144.53 84.3517 145.05 84.0317 145.546C83.7117 146.042 83.3357 146.526 82.9037 146.998C82.4797 147.462 82.0317 147.934 81.5597 148.414L77.3837 152.686C77.7277 152.59 78.0717 152.514 78.4157 152.458C78.7677 152.402 79.0997 152.374 79.4117 152.374H84.4877ZM98.4096 152.374C98.6896 152.374 98.9096 152.458 99.0696 152.626C99.2296 152.786 99.3096 152.994 99.3096 153.25V154.81H87.6216V153.934C87.6216 153.758 87.6576 153.574 87.7296 153.382C87.8016 153.19 87.9176 153.014 88.0776 152.854L93.4536 147.466C93.9096 147.01 94.3136 146.574 94.6656 146.158C95.0256 145.742 95.3296 145.326 95.5776 144.91C95.8336 144.494 96.0256 144.074 96.1536 143.65C96.2896 143.218 96.3576 142.766 96.3576 142.294C96.3576 141.838 96.2856 141.438 96.1416 141.094C96.0056 140.742 95.8136 140.454 95.5656 140.23C95.3256 139.998 95.0336 139.826 94.6896 139.714C94.3536 139.594 93.9816 139.534 93.5736 139.534C93.1816 139.534 92.8176 139.59 92.4816 139.702C92.1536 139.814 91.8576 139.97 91.5936 140.17C91.3376 140.37 91.1216 140.61 90.9456 140.89C90.7776 141.162 90.6536 141.462 90.5736 141.79C90.4536 142.118 90.2976 142.338 90.1056 142.45C89.9216 142.562 89.6496 142.586 89.2896 142.522L87.9336 142.282C88.0536 141.466 88.2776 140.75 88.6056 140.134C88.9416 139.518 89.3616 139.006 89.8656 138.598C90.3696 138.182 90.9456 137.87 91.5936 137.662C92.2496 137.446 92.9576 137.338 93.7176 137.338C94.4856 137.338 95.1896 137.454 95.8296 137.686C96.4776 137.91 97.0336 138.234 97.4976 138.658C97.9696 139.074 98.3376 139.582 98.6016 140.182C98.8656 140.782 98.9976 141.458 98.9976 142.21C98.9976 142.85 98.9016 143.442 98.7096 143.986C98.5256 144.53 98.2736 145.05 97.9536 145.546C97.6336 146.042 97.2576 146.526 96.8256 146.998C96.4016 147.462 95.9536 147.934 95.4816 148.414L91.3056 152.686C91.6496 152.59 91.9936 152.514 92.3376 152.458C92.6896 152.402 93.0216 152.374 93.3336 152.374H98.4096ZM115.38 144.79C115.316 144.902 115.244 144.982 115.164 145.03C115.084 145.078 114.984 145.102 114.864 145.102C114.728 145.102 114.58 145.062 114.42 144.982C114.26 144.894 114.072 144.798 113.856 144.694C113.64 144.59 113.384 144.498 113.088 144.418C112.8 144.33 112.46 144.286 112.068 144.286C111.748 144.286 111.456 144.326 111.192 144.406C110.936 144.478 110.716 144.586 110.532 144.73C110.356 144.866 110.22 145.03 110.124 145.222C110.028 145.406 109.98 145.606 109.98 145.822C109.98 146.11 110.068 146.35 110.244 146.542C110.42 146.734 110.652 146.902 110.94 147.046C111.228 147.182 111.556 147.306 111.924 147.418C112.292 147.53 112.668 147.65 113.052 147.778C113.436 147.906 113.812 148.054 114.18 148.222C114.548 148.39 114.876 148.598 115.164 148.846C115.452 149.086 115.684 149.382 115.86 149.734C116.036 150.078 116.124 150.498 116.124 150.994C116.124 151.57 116.02 152.102 115.812 152.59C115.604 153.078 115.3 153.502 114.9 153.862C114.5 154.222 114 154.502 113.4 154.702C112.808 154.902 112.128 155.002 111.36 155.002C110.936 155.002 110.524 154.962 110.124 154.882C109.732 154.81 109.356 154.71 108.996 154.582C108.644 154.446 108.312 154.286 108 154.102C107.696 153.918 107.424 153.718 107.184 153.502L107.784 152.518C107.856 152.398 107.944 152.306 108.048 152.242C108.16 152.17 108.296 152.134 108.456 152.134C108.624 152.134 108.788 152.19 108.948 152.302C109.116 152.406 109.308 152.522 109.524 152.65C109.748 152.778 110.016 152.898 110.328 153.01C110.64 153.114 111.028 153.166 111.492 153.166C111.876 153.166 112.208 153.122 112.488 153.034C112.768 152.938 113 152.81 113.184 152.65C113.368 152.49 113.504 152.31 113.592 152.11C113.68 151.902 113.724 151.682 113.724 151.45C113.724 151.138 113.636 150.882 113.46 150.682C113.284 150.482 113.048 150.31 112.752 150.166C112.464 150.022 112.132 149.894 111.756 149.782C111.388 149.67 111.012 149.55 110.628 149.422C110.244 149.294 109.864 149.146 109.488 148.978C109.12 148.81 108.788 148.598 108.492 148.342C108.204 148.078 107.972 147.762 107.796 147.394C107.62 147.018 107.532 146.562 107.532 146.026C107.532 145.538 107.628 145.074 107.82 144.634C108.02 144.194 108.308 143.806 108.684 143.47C109.068 143.134 109.536 142.87 110.088 142.678C110.648 142.478 111.292 142.378 112.02 142.378C112.844 142.378 113.592 142.51 114.264 142.774C114.936 143.038 115.5 143.398 115.956 143.854L115.38 144.79ZM122.473 155.002C121.457 155.002 120.673 154.718 120.121 154.15C119.577 153.574 119.305 152.766 119.305 151.726V144.598H117.961C117.817 144.598 117.693 144.554 117.589 144.466C117.485 144.37 117.433 144.23 117.433 144.046V143.002L119.413 142.714L119.977 139.174C120.017 139.038 120.085 138.93 120.181 138.85C120.277 138.762 120.405 138.718 120.565 138.718H121.885V142.738H125.281V144.598H121.885V151.546C121.885 151.986 121.993 152.322 122.209 152.554C122.425 152.786 122.713 152.902 123.073 152.902C123.273 152.902 123.445 152.878 123.589 152.83C123.733 152.774 123.857 152.718 123.961 152.662C124.065 152.598 124.153 152.542 124.225 152.494C124.305 152.438 124.381 152.41 124.453 152.41C124.597 152.41 124.713 152.49 124.801 152.65L125.569 153.91C125.169 154.262 124.697 154.534 124.153 154.726C123.609 154.91 123.049 155.002 122.473 155.002ZM133.854 149.458C132.934 149.49 132.158 149.566 131.526 149.686C130.894 149.798 130.382 149.946 129.99 150.13C129.598 150.306 129.314 150.518 129.138 150.766C128.97 151.014 128.886 151.286 128.886 151.582C128.886 151.87 128.93 152.118 129.018 152.326C129.114 152.526 129.242 152.694 129.402 152.83C129.57 152.958 129.762 153.054 129.978 153.118C130.202 153.174 130.446 153.202 130.71 153.202C131.382 153.202 131.958 153.078 132.438 152.83C132.926 152.574 133.398 152.206 133.854 151.726V149.458ZM127.014 144.274C128.398 142.986 130.046 142.342 131.958 142.342C132.662 142.342 133.286 142.458 133.83 142.69C134.382 142.914 134.842 143.234 135.21 143.65C135.586 144.066 135.87 144.562 136.062 145.138C136.262 145.706 136.362 146.338 136.362 147.034V154.81H135.21C134.962 154.81 134.774 154.774 134.646 154.702C134.518 154.622 134.41 154.466 134.322 154.234L134.07 153.238C133.758 153.518 133.45 153.77 133.146 153.994C132.842 154.21 132.526 154.394 132.198 154.546C131.878 154.698 131.53 154.81 131.154 154.882C130.786 154.962 130.378 155.002 129.93 155.002C129.434 155.002 128.97 154.934 128.538 154.798C128.114 154.662 127.746 154.458 127.434 154.186C127.122 153.906 126.874 153.562 126.69 153.154C126.514 152.746 126.426 152.266 126.426 151.714C126.426 151.242 126.55 150.782 126.798 150.334C127.054 149.886 127.47 149.486 128.046 149.134C128.63 148.774 129.394 148.478 130.338 148.246C131.29 148.014 132.462 147.882 133.854 147.85V147.034C133.854 146.154 133.666 145.498 133.29 145.066C132.914 144.634 132.362 144.418 131.634 144.418C131.138 144.418 130.722 144.482 130.386 144.61C130.05 144.73 129.758 144.862 129.51 145.006C129.262 145.15 129.042 145.286 128.85 145.414C128.658 145.534 128.454 145.594 128.238 145.594C128.062 145.594 127.91 145.55 127.782 145.462C127.662 145.366 127.562 145.25 127.482 145.114L127.014 144.274ZM143.144 155.002C142.128 155.002 141.344 154.718 140.792 154.15C140.248 153.574 139.976 152.766 139.976 151.726V144.598H138.632C138.488 144.598 138.364 144.554 138.26 144.466C138.156 144.37 138.104 144.23 138.104 144.046V143.002L140.084 142.714L140.648 139.174C140.688 139.038 140.756 138.93 140.852 138.85C140.948 138.762 141.076 138.718 141.236 138.718H142.556V142.738H145.952V144.598H142.556V151.546C142.556 151.986 142.664 152.322 142.88 152.554C143.096 152.786 143.384 152.902 143.744 152.902C143.944 152.902 144.116 152.878 144.26 152.83C144.404 152.774 144.528 152.718 144.632 152.662C144.736 152.598 144.824 152.542 144.896 152.494C144.976 152.438 145.052 152.41 145.124 152.41C145.268 152.41 145.384 152.49 145.472 152.65L146.24 153.91C145.84 154.262 145.368 154.534 144.824 154.726C144.28 154.91 143.72 155.002 143.144 155.002ZM155.92 147.31C155.92 146.878 155.856 146.478 155.728 146.11C155.608 145.734 155.428 145.41 155.188 145.138C154.948 144.858 154.648 144.642 154.288 144.49C153.936 144.33 153.528 144.25 153.064 144.25C152.128 144.25 151.392 144.518 150.856 145.054C150.32 145.59 149.98 146.342 149.836 147.31H155.92ZM149.764 148.894C149.796 149.59 149.904 150.194 150.088 150.706C150.272 151.21 150.516 151.63 150.82 151.966C151.132 152.302 151.5 152.554 151.924 152.722C152.356 152.882 152.836 152.962 153.364 152.962C153.868 152.962 154.304 152.906 154.672 152.794C155.04 152.674 155.36 152.546 155.632 152.41C155.904 152.266 156.136 152.138 156.328 152.026C156.52 151.906 156.696 151.846 156.856 151.846C157.064 151.846 157.224 151.926 157.336 152.086L158.068 153.034C157.764 153.394 157.42 153.698 157.036 153.946C156.652 154.194 156.244 154.398 155.812 154.558C155.38 154.71 154.936 154.818 154.48 154.882C154.024 154.954 153.58 154.99 153.148 154.99C152.3 154.99 151.512 154.85 150.784 154.57C150.064 154.282 149.436 153.862 148.9 153.31C148.372 152.758 147.956 152.074 147.652 151.258C147.356 150.442 147.208 149.502 147.208 148.438C147.208 147.59 147.34 146.798 147.604 146.062C147.876 145.326 148.26 144.686 148.756 144.142C149.26 143.598 149.868 143.17 150.58 142.858C151.3 142.538 152.112 142.378 153.016 142.378C153.768 142.378 154.464 142.502 155.104 142.75C155.744 142.99 156.296 143.346 156.76 143.818C157.224 144.29 157.584 144.87 157.84 145.558C158.104 146.238 158.236 147.014 158.236 147.886C158.236 148.286 158.192 148.554 158.104 148.69C158.016 148.826 157.856 148.894 157.624 148.894H149.764ZM167.95 144.79C167.886 144.902 167.814 144.982 167.734 145.03C167.654 145.078 167.554 145.102 167.434 145.102C167.298 145.102 167.15 145.062 166.99 144.982C166.83 144.894 166.642 144.798 166.426 144.694C166.21 144.59 165.954 144.498 165.658 144.418C165.37 144.33 165.03 144.286 164.638 144.286C164.318 144.286 164.026 144.326 163.762 144.406C163.506 144.478 163.286 144.586 163.102 144.73C162.926 144.866 162.79 145.03 162.694 145.222C162.598 145.406 162.55 145.606 162.55 145.822C162.55 146.11 162.638 146.35 162.814 146.542C162.99 146.734 163.222 146.902 163.51 147.046C163.798 147.182 164.126 147.306 164.494 147.418C164.862 147.53 165.238 147.65 165.622 147.778C166.006 147.906 166.382 148.054 166.75 148.222C167.118 148.39 167.446 148.598 167.734 148.846C168.022 149.086 168.254 149.382 168.43 149.734C168.606 150.078 168.694 150.498 168.694 150.994C168.694 151.57 168.59 152.102 168.382 152.59C168.174 153.078 167.87 153.502 167.47 153.862C167.07 154.222 166.57 154.502 165.97 154.702C165.378 154.902 164.698 155.002 163.93 155.002C163.506 155.002 163.094 154.962 162.694 154.882C162.302 154.81 161.926 154.71 161.566 154.582C161.214 154.446 160.882 154.286 160.57 154.102C160.266 153.918 159.994 153.718 159.754 153.502L160.354 152.518C160.426 152.398 160.514 152.306 160.618 152.242C160.73 152.17 160.866 152.134 161.026 152.134C161.194 152.134 161.358 152.19 161.518 152.302C161.686 152.406 161.878 152.522 162.094 152.65C162.318 152.778 162.586 152.898 162.898 153.01C163.21 153.114 163.598 153.166 164.062 153.166C164.446 153.166 164.778 153.122 165.058 153.034C165.338 152.938 165.57 152.81 165.754 152.65C165.938 152.49 166.074 152.31 166.162 152.11C166.25 151.902 166.294 151.682 166.294 151.45C166.294 151.138 166.206 150.882 166.03 150.682C165.854 150.482 165.618 150.31 165.322 150.166C165.034 150.022 164.702 149.894 164.326 149.782C163.958 149.67 163.582 149.55 163.198 149.422C162.814 149.294 162.434 149.146 162.058 148.978C161.69 148.81 161.358 148.598 161.062 148.342C160.774 148.078 160.542 147.762 160.366 147.394C160.19 147.018 160.102 146.562 160.102 146.026C160.102 145.538 160.198 145.074 160.39 144.634C160.59 144.194 160.878 143.806 161.254 143.47C161.638 143.134 162.106 142.87 162.658 142.678C163.218 142.478 163.862 142.378 164.59 142.378C165.414 142.378 166.162 142.51 166.834 142.774C167.506 143.038 168.07 143.398 168.526 143.854L167.95 144.79Z" fill="white"/>
<defs>
<clipPath id="clip0_118_1438">
<rect width="142.02" height="119.81" fill="white" transform="translate(13.99)"/>
</clipPath>
</defs>
</svg>
