<svg width="617" height="356" viewBox="0 0 617 356" fill="none" xmlns="http://www.w3.org/2000/svg">
<path d="M27.36 133.76C25.61 134.05 20.08 134.63 20.29 139.85C20.41 142.74 22.23 143.08 24.48 145.77C26.63 148.35 26.97 151.94 34.97 152.44C42.97 152.94 46.63 155.55 55.08 158.58C60.77 160.63 66.23 162.47 66.44 170.24C66.58 175.75 68.38 178.02 70.12 178.53C72.15 179.13 74.56 175.16 76.57 179.91C78.57 184.66 73.7 189.22 70.43 191.27C68.43 192.52 69.51 199.64 69.51 203.39C69.51 207.14 71.14 220.56 71.64 226.57C72.14 232.57 72.64 235.09 75.64 235.33C78.64 235.58 82.4 230.07 82.4 225.07C82.4 220.07 87.15 213.31 87.9 209.56C88.65 205.81 91.81 191.01 90.15 183.04C89.38 179.31 84.15 169.98 84.4 164.75C84.65 159.52 87.24 148.6 85.15 144.26C83.42 140.66 79.84 137.18 75.13 135.96C70.82 134.83 61.71 135.01 57.38 135.01C52.88 135.01 39.31 134.19 37.62 133.76C34.2 132.89 29.89 133.34 27.36 133.76Z" fill="#834E27"/>
<path d="M20.36 143.51C14.57 144.24 6.6 142.51 5.85 161.77C5.1 181.03 3.1 179.97 4.1 186.76C5.1 193.54 6.6 197.55 5.35 205.3C4.1 213.05 2.55 213.8 3.82 221.56C5.1 229.32 6.13 233.34 10.67 235.31C13.74 236.64 19.1 235.32 20.35 231.82C21.6 228.32 19.6 209.27 18.85 204.77C18.1 200.27 21.93 190.05 18.39 188.35C15.82 187.12 9.57 186.89 11.94 176.99C15.1 163.79 17.62 175.15 21.92 174.38C27.82 173.33 30.62 150.95 30.62 150.95C30.62 150.95 26.33 145.86 24.38 144.15C22.74 142.71 21.37 143.39 20.36 143.51Z" fill="#834E27"/>
<path d="M23.77 216.17C26.97 220.21 31.95 226.17 45.26 226.51C65.02 227.01 70.68 212.97 71.25 206.05C71.61 201.69 70.13 195.3 71.25 193.57C73.07 190.75 81.17 187.43 78 178.32C76.04 172.7 70.65 178.08 69.3 175.86C67.25 172.48 70.14 163.6 62.63 159.81C55.13 156.02 34.61 148.13 30.62 150.95C27.8 152.94 26.94 166.35 23.05 171.47C18.68 177.22 16.19 159.81 11.49 174.23C9.12 181.49 11.27 185.99 13.74 187.94C16.21 189.89 17.17 188.98 17.93 189.99C19.93 192.63 17.51 197.57 18.1 202.31C18.7 207.04 22.21 214.21 23.77 216.17Z" fill="#FBC189"/>
<path d="M38.2 175.77C38.2 176.79 37.46 177.61 36.55 177.61C35.64 177.61 34.9 176.79 34.9 175.77C34.9 174.75 35.64 173.93 36.55 173.93C37.47 173.93 38.2 174.75 38.2 175.77Z" fill="#5F3A16"/>
<path d="M57.85 175.36C57.85 176.38 57.11 177.2 56.2 177.2C55.29 177.2 54.55 176.38 54.55 175.36C54.55 174.34 55.29 173.52 56.2 173.52C57.11 173.52 57.85 174.34 57.85 175.36Z" fill="#5F3A16"/>
<path d="M50.06 182.92C54.56 200.72 40.44 206.66 44.13 182.92" stroke="#5F3A16" stroke-width="1.0809" stroke-miterlimit="10" stroke-linecap="round" stroke-linejoin="round"/>
<path d="M38.2 206.02C39.48 205.94 48.29 208.7 57.84 206.02C59.88 205.45 56.15 217.37 47.6 217.29C39.75 217.2 31.84 206.39 38.2 206.02Z" fill="white"/>
<path d="M73.9 139.85C77.6 140.62 83.23 143.28 82.17 149.67" stroke="white" stroke-width="1.0809" stroke-miterlimit="10" stroke-linecap="round" stroke-linejoin="round"/>
<path d="M71.11 139.64C71.33 139.59 70.96 139.59 71.39 139.61" stroke="white" stroke-width="1.0809" stroke-miterlimit="10" stroke-linecap="round" stroke-linejoin="round"/>
<path d="M57.85 206.01C48.45 207.18 44.6 207.38 36.56 205.43" stroke="#5F3A16" stroke-width="1.0809" stroke-miterlimit="10" stroke-linecap="round" stroke-linejoin="round"/>
<path d="M18.56 274.34C20.3 266.28 27.92 259.4 48.94 259.4C69.95 259.4 74.5 270.64 77.19 274.54C79.24 277.51 78.71 280.74 75.71 282.49C72.71 284.24 71.84 289.61 73.1 290.81C74.94 292.55 78.93 293.37 79.96 298.07C80.8 301.93 77.16 311.03 80.78 311.06C82.6 311.07 83.54 304.51 88.05 306.76C92.55 309.01 90.51 314.64 89.23 317.51C88.01 320.25 84.58 321.87 83.73 323.76C79.29 333.61 80.67 355.15 48.75 355.15C16.53 355.15 14.18 328.96 11.68 324.51C10.17 321.83 3.12 329.47 0.87 316.58C-1.84 301.02 8.65 304.1 11.31 307.27C12.15 308.27 14.26 312.73 15.5 311.77C19.95 308.35 18.32 292.23 25.32 287.72C32.32 283.22 20.62 283.93 19.28 281.38C18.24 279.4 18.09 276.5 18.56 274.34Z" fill="#FCC58D"/>
<path d="M16.42 273.24C13.4 274.97 7.16 276.29 8.42 284.65C9.67 293.01 7.17 293.76 7.17 293.76C7.17 293.76 3.22 297.26 1.85 299.51C0.68 301.43 -1.19 308.24 1.07 309.33C2.83 310.19 2.58 304.62 7.52 306.16C10.8 307.18 12.9 314.05 15.3 313.42C22.16 311.62 18.06 294.69 25.74 289.27C35.29 282.52 21.62 283.16 20.21 280.78C18.88 278.53 20.52 269.63 20.52 269.63C20.52 269.63 17.6 272.56 16.42 273.24Z" fill="#BCBDBF"/>
<path d="M74.12 270.66C76.84 267.43 84.71 275.75 88.22 280.75C91.72 285.75 90.79 291.42 91.47 295.01C91.81 296.78 93.87 299.1 93.97 303.71C94.05 307.11 88.47 323.08 88.65 318.65C88.75 316.09 91.48 307.87 86.4 307.5C82.93 307.24 82.51 313.23 80.26 312.21C75.04 309.84 81.18 298.6 77.06 294.94C74.78 292.92 71.05 292.87 71.77 287.14C72.28 283.05 77.21 280.76 77.46 278.5C77.7 276.24 72.83 272.18 74.12 270.66Z" fill="#BCBDBF"/>
<path d="M54.01 317.77C53.24 321.45 45.31 321.35 45.72 317.46" stroke="#5F3A16" stroke-width="1.0809" stroke-miterlimit="10" stroke-linecap="round" stroke-linejoin="round"/>
<path d="M42.4 328.87C43.68 328.79 55.5 329.28 60.82 329.08C62.93 329 59.55 338.37 51 338.29C43.13 338.21 36.03 329.25 42.4 328.87Z" fill="white"/>
<path d="M49.74 322.15C46.71 322.04 41.22 319.77 38 323.61C34.78 327.45 36.25 330.64 36.54 330.9C36.83 331.15 37.35 329.48 37.77 329.6C38.29 329.74 38.46 331.67 39 330.6C40.28 328.05 40.38 330.75 41.3 330.75C41.93 330.75 41.99 329.14 42.68 329.14C43.37 329.14 42.88 330.6 43.91 330.6C44.52 330.6 44.37 330.6 44.75 329.37C45.13 328.14 46.01 328.97 46.13 329.29C46.26 329.63 46.13 330.59 46.9 330.52C47.67 330.44 47.13 328.83 48.05 328.83C48.43 328.83 48.36 330.29 49.2 330.44C49.85 330.56 49.51 328.75 50.58 328.91C51.01 328.97 50.58 329.98 51.73 330.21C52.5 330.36 52.57 329.09 52.96 329.06C53.88 328.98 53.27 330.02 54.03 330.13C55.03 330.28 54.95 328.9 55.26 328.9C55.91 328.9 56.26 329.82 56.56 329.82C57.4 329.82 57.17 328.75 57.79 328.59C58.41 328.43 58.4 329.63 58.94 329.66C60.01 329.74 59.63 328.6 60.47 328.36C61.01 328.21 61.21 330.05 61.62 330.05C62.69 330.05 62.08 328.21 63 328.29C63.39 328.32 63.77 329.98 64.3 330.05C64.84 330.13 65.04 329.05 65.14 328.44C65.46 326.51 63.76 322.53 60.23 321.61C56.72 320.69 52.56 322.25 49.74 322.15Z" fill="#BCBDBF"/>
<path d="M31.12 265.54C28.18 266.77 21.42 268.92 22.96 278.74" stroke="white" stroke-width="1.0809" stroke-miterlimit="10" stroke-linecap="round" stroke-linejoin="round"/>
<path d="M33.91 265.33C33.69 265.28 34.06 265.28 33.63 265.3" stroke="white" stroke-width="1.0809" stroke-miterlimit="10" stroke-linecap="round" stroke-linejoin="round"/>
<path d="M37.99 299.01C37.99 300.45 36.95 301.62 35.66 301.62C34.37 301.62 33.32 300.45 33.32 299.01C33.32 297.57 34.37 296.4 35.66 296.4C36.95 296.4 37.99 297.57 37.99 299.01Z" fill="#5F3A16"/>
<path d="M62.59 299.01C62.59 300.45 61.55 301.62 60.26 301.62C58.97 301.62 57.92 300.45 57.92 299.01C57.92 297.57 58.97 296.4 60.26 296.4C61.55 296.4 62.59 297.57 62.59 299.01Z" fill="#5F3A16"/>
<path d="M57.8 335.92C54.8 338.77 49.5 340.65 43.9 335.92" stroke="#5F3A16" stroke-width="1.0809" stroke-miterlimit="10" stroke-linecap="round" stroke-linejoin="round"/>
<path d="M386.66 226.7C391.44 230.81 408.82 233.46 414.63 231.39C425.68 227.47 424.94 224.08 425.89 218.06C426.84 212.04 423.29 203.72 423.45 198.53C423.49 197.03 423.53 194.67 424.39 193.84C426.02 192.27 431.97 192.03 429.44 186.32C426.91 180.62 424.18 183.51 422.7 182.19C420.88 180.57 424.72 174.11 422.7 172.43C419.32 169.61 406.74 174.49 393.98 174.68C384.78 174.81 374.28 170.21 370.32 173.55C367.88 175.61 371.91 184.54 370.83 186.31C370.13 187.44 361.01 180.61 361.01 188.53C361.01 196.45 363.82 200.03 368.26 199.08C372.7 198.13 370.86 206.07 377.17 215.14C379.71 218.82 383.82 224.27 386.66 226.7Z" fill="#DCA784"/>
<path d="M396.81 192.15C396.81 193.08 396.13 193.84 395.3 193.84C394.47 193.84 393.79 193.08 393.79 192.15C393.79 191.22 394.47 190.46 395.3 190.46C396.13 190.46 396.81 191.22 396.81 192.15Z" fill="#5F3A16"/>
<path d="M415.12 191.31C415.12 192.24 414.44 193 413.61 193C412.78 193 412.1 192.24 412.1 191.31C412.1 190.38 412.78 189.62 413.61 189.62C414.44 189.62 415.12 190.38 415.12 191.31Z" fill="#5F3A16"/>
<path d="M406.63 140.4C397.86 140.48 399.61 127 374.26 138.09C348.92 149.18 347.58 164.4 347.41 176.01C347.27 186.11 348.05 206.2 350.79 216.56C352.48 222.94 354.59 232.86 358.86 234.77C365.72 237.85 387.78 228.15 383.81 222.44C376.32 211.67 374.35 205.92 373.13 202.66C371.44 198.15 371.31 197.44 369.75 197.4C367.19 197.34 362.62 200.22 362.24 190.45C361.91 181.88 368.54 189.53 372.19 187.07C374.03 185.83 369.67 177.39 371.63 175.62C376.57 171.13 381.71 177.44 396.22 176.37C406.34 175.62 419.62 172.22 421.19 173.36C423.31 174.9 418.87 181.76 420.87 183.46C422.59 184.92 427.19 181.25 428.32 187.44C429.23 192.43 424.49 190.94 423.25 192.13C420.19 195.08 423.4 203.73 423.72 209.11C424.04 214.5 424.6 215.55 426.25 216.35C429.83 218.06 436.23 213.38 439.39 210.53C442.56 207.68 444.94 205.6 444.62 203.41C444.08 199.64 437.97 196.13 435.43 183.45C432.89 170.77 428.36 150.41 427.83 148.92C425.68 142.94 417.69 134.98 412.62 136.88C407.58 138.81 408.37 140.38 406.63 140.4Z" fill="#333333"/>
<path d="M405.71 210.04C407.59 211.07 410.87 211.64 410.78 208.35C410.69 205.35 407.26 197.2 406.98 194.55" stroke="#5F3A16" stroke-width="1.0809" stroke-miterlimit="10" stroke-linecap="round" stroke-linejoin="round"/>
<path d="M420.86 215.33C418.18 216.96 406.53 219 399.97 214.98C398.06 213.81 402.8 224.77 411.6 225.09C419.69 225.38 425.33 212.61 420.86 215.33Z" fill="white"/>
<path d="M354.27 159.58C353.11 162.14 349.86 171.69 351.26 180.7" stroke="white" stroke-width="1.0809" stroke-miterlimit="10" stroke-linecap="round" stroke-linejoin="round"/>
<path d="M355.59 157.8C355.99 157.78 355.38 157.75 355.59 157.8Z" stroke="white" stroke-width="1.0809" stroke-miterlimit="10" stroke-linecap="round" stroke-linejoin="round"/>
<path d="M408.91 207.92C409.31 207.9 408.7 207.88 408.91 207.92Z" stroke="white" stroke-width="1.0809" stroke-miterlimit="10" stroke-linecap="round" stroke-linejoin="round"/>
<path d="M421.6 213.95C418.85 216.57 405.12 218.48 399.98 214.15" stroke="#5F3A16" stroke-width="1.0809" stroke-miterlimit="10" stroke-linecap="round" stroke-linejoin="round"/>
<path d="M185.69 172.96C186.42 164.34 190.87 136.4 217.73 136.4C255.64 136.4 251.8 170.93 254.26 173.23C255.26 174.17 256.32 170.21 259.32 172.46C262.32 174.71 263.46 180.59 262.85 183.51C262.18 186.69 259.24 191.88 255.48 190.88C251.73 189.88 254.88 208.02 249.19 215.9C245.27 221.32 238.6 232.17 220.03 232.17C208.21 232.17 199.31 226.18 194.55 221.27C191.96 218.6 187.44 210.26 186.19 203.21C185.04 196.72 185.98 191.58 184.29 191.2C182.89 190.88 174.45 190.73 176.75 179.99C179.72 166.12 185.46 175.72 185.69 172.96Z" fill="#DD9B70"/>
<path d="M220.95 195.95C220.75 191.86 220.34 186.95 220.75 183.06" stroke="#5F3A16" stroke-width="1.0809" stroke-miterlimit="10" stroke-linecap="round" stroke-linejoin="round"/>
<path d="M229.14 204.58C226.69 206.14 215.17 207.4 211.26 203.92C209.01 201.92 212.39 215.51 220.2 215.94C231.07 216.53 236.88 199.65 229.14 204.58Z" fill="white"/>
<path d="M211.28 212.22C212.26 210.93 216.91 214.88 222.02 214.68C225.09 214.56 230.22 210.56 232.15 211.92C234.76 213.76 231.69 222.15 235.37 223.58C239.05 225.01 240.69 222.76 240.69 222.76C240.69 222.76 245.7 219.69 245.7 220.92C245.7 222.97 237.52 229 232.81 230.95C229.3 232.4 222.68 233.3 214.48 232.18C207.46 231.22 199.76 227.17 198.12 225.12C196.48 223.07 196.89 222.05 198.94 223.07C200.99 224.09 207.02 226.65 209.89 225.12C212.96 223.47 209.59 214.43 211.28 212.22Z" fill="#834E27"/>
<path d="M212.61 175.23C211.84 178.91 203.91 178.81 204.32 174.92" stroke="#5F3A16" stroke-width="1.0809" stroke-miterlimit="10" stroke-linecap="round" stroke-linejoin="round"/>
<path d="M235.73 174.82C234.96 178.5 227.03 178.4 227.44 174.51" stroke="#5F3A16" stroke-width="1.0809" stroke-miterlimit="10" stroke-linecap="round" stroke-linejoin="round"/>
<path d="M206.4 142.85C202.7 143.62 191.79 151.45 191.79 166.49" stroke="white" stroke-width="1.0809" stroke-miterlimit="10" stroke-linecap="round" stroke-linejoin="round"/>
<path d="M209.18 142.64C208.96 142.59 209.33 142.59 208.89 142.61" stroke="white" stroke-width="1.0809" stroke-miterlimit="10" stroke-linecap="round" stroke-linejoin="round"/>
<path d="M231.51 202.64C228.51 205.49 216.5 207.58 210.9 202.85" stroke="#5F3A16" stroke-width="1.0809" stroke-miterlimit="10" stroke-linecap="round" stroke-linejoin="round"/>
<path d="M252.12 268.7C252.12 268.7 265.53 269.98 265.53 277.64C265.53 285.31 260.2 285.11 254.66 285.11C249.12 285.11 244.93 287.97 238.33 287.55C231.73 287.12 226.57 284.81 224.43 289.77C222.53 294.18 220.17 295.31 220.17 299.78C220.17 304.25 221.41 306.79 219.64 307.54C217.77 308.33 213.88 301.31 212.06 305.71C210.49 309.5 211 313.54 212.5 315.25C213.99 316.95 215.07 314.99 216.76 316.82C218.06 318.23 218.61 331.09 217.18 335.56C216.7 337.07 214.5 339.79 213.02 340.33C205.06 343.25 195.8 337.74 194.73 311.77C193.66 285.79 202.09 279.71 204.83 277.63C209.18 274.32 218.74 269.55 231.16 268.7C243.6 267.84 252.12 268.7 252.12 268.7Z" fill="#F89E1B"/>
<path d="M195.88 291.99C192.42 284.68 174.78 276.44 165.84 290.42C155.65 306.36 159.01 320.93 163.62 327.78C167.86 334.08 179.93 339.6 190.4 333.4C198.11 328.83 196.2 317.28 196.67 310.54C197.05 304.92 197.07 294.5 195.88 291.99Z" fill="#F89E1B"/>
<path d="M263.02 282.45C266.6 281.94 266.05 302.76 266.05 302.76C266.05 302.76 266.05 306.59 274.14 309.79C282.23 312.98 280.5 317.23 278.61 318.95C276.59 320.78 273.71 321.29 268.18 322.14C262.64 322.99 268.83 338.31 263.93 341.5C259.03 344.69 252.17 346.59 238.98 346.2C225.89 345.81 220.58 343.87 217.69 337.97C215.8 334.12 216.65 325.14 216.44 320.86C216.4 320 216.04 318.1 215.34 317.59C213.77 316.44 209.9 317.48 210.11 311.84C210.32 306.2 210.57 303.09 213.77 303.09C216.96 303.09 217.82 306.44 219.13 305.57C220.31 304.79 217.47 302.05 219.65 296.16C221.35 291.59 224.74 284.53 228.53 285.19C245.74 288.16 249.3 283.88 251.52 284.01C262.38 284.66 261.19 282.72 263.02 282.45Z" fill="#FCCBA6"/>
<path d="M256.91 297.48C256.91 298.35 257.54 299.05 258.31 299.05C259.09 299.05 259.71 298.35 259.71 297.48C259.71 296.62 259.08 295.91 258.31 295.91C257.54 295.91 256.91 296.61 256.91 297.48Z" fill="#5F3A16"/>
<path d="M250.09 327C250.35 330.66 262.93 332.44 265.63 328.96" stroke="#5F3A16" stroke-width="1.1723" stroke-miterlimit="10" stroke-linecap="round" stroke-linejoin="round"/>
<path d="M267.55 308.54C269.33 310.59 280.61 312.81 277.74 317.6" stroke="white" stroke-width="1.1723" stroke-miterlimit="10" stroke-linecap="round" stroke-linejoin="round"/>
<path d="M187.77 289.07C190.71 290.83 195.54 295.86 194.24 304.22" stroke="white" stroke-width="1.1723" stroke-miterlimit="10" stroke-linecap="round" stroke-linejoin="round"/>
<path d="M185.75 287.7C185.88 287.5 185.51 287.66 185.88 287.68" stroke="white" stroke-width="1.1723" stroke-miterlimit="10" stroke-linecap="round" stroke-linejoin="round"/>
<path d="M365.77 35.01C360.3 37.52 346.61 38.71 347.14 20.23C347.68 1.73996 365.72 5.97996 371.75 7.99996C375.62 9.29996 382.67 12.66 378.63 20.85C374.81 28.59 370.3 32.93 365.77 35.01Z" fill="#F89E1B"/>
<path d="M433.84 10.7699C433.84 10.7699 444.85 11.7999 443.24 27.8699C442.65 33.7999 439.09 36.8499 436.56 38.2899C432.22 40.7599 429.13 40.0299 426.68 39.6099C420.56 38.5599 407.54 37.0399 401.97 37.0199C398.74 37.0099 393.44 35.4799 388.31 44.7899C384.38 51.9199 387.92 53.7599 384.1 55.7699C381.5 57.1299 382 44.3499 376.53 49.3399C371.69 53.7599 372.84 62.5399 374.58 65.8999C375.49 67.6599 376.91 68.3099 381.09 68.7099C383.15 68.9099 376.61 85.4399 373.77 87.0399C370.93 88.6499 367.15 90.8499 365.54 82.8099C363.93 74.7699 362.06 58.4399 362.33 54.6899C362.6 50.9399 363 46.1999 364.44 37.8299C365.43 32.1299 379.07 14.1899 388.31 12.8999C392.81 12.2699 398.49 10.2199 405.18 10.7599C411.87 11.3099 427.96 9.05992 433.84 10.7699Z" fill="#F89E1B"/>
<path d="M434.71 44.44C433.91 47.92 433.1 56.72 435.51 56.98C437.92 57.25 441.7 55.64 443.71 58.91C445 61 446.03 65.75 442.75 68.56C439.45 71.37 433.99 67.49 432.94 69.36C431.89 71.23 431.8 74.62 432.07 77.03C432.62 82.06 430.65 79.81 427.13 80.23C420.38 81.03 412.17 74.28 415.39 79.91C421.41 90.45 431.23 85.38 431.79 86.18C432.43 87.09 432.19 88.49 431.76 90.64C430.98 94.53 434.03 98.12 421.04 99.43C410.43 100.5 387.29 99.72 379.87 94.12C376.95 91.91 374.18 88.94 374.24 85.27C374.31 81.27 380.83 72.16 379.55 70.64C378.38 69.25 370.57 71.21 371.35 57.94C371.95 47.75 380.43 44.55 381.96 48.45C383.57 52.55 383.33 55.69 384.37 53.76C385.02 52.56 385.24 35.88 398.2 34.94C410.42 34.06 423.29 38.48 429.4 37.67C433.41 37.14 434.12 36.56 435.51 37.19C437.24 37.98 435.08 42.85 434.71 44.44Z" fill="#FCCBA6"/>
<path d="M359.8 9.05994C355.92 9.86994 350.02 12.6499 351.14 19.3599" stroke="white" stroke-width="1.0809" stroke-miterlimit="10" stroke-linecap="round" stroke-linejoin="round"/>
<path d="M362.72 8.84999C362.49 8.79999 362.88 8.79999 362.42 8.81999" stroke="white" stroke-width="1.0809" stroke-miterlimit="10" stroke-linecap="round" stroke-linejoin="round"/>
<path d="M425.47 49.4199C425.47 50.9299 424.38 52.1599 423.03 52.1599C421.68 52.1599 420.58 50.9399 420.58 49.4199C420.58 47.9099 421.68 46.6899 423.03 46.6899C424.38 46.6899 425.47 47.9199 425.47 49.4199Z" fill="#5F3A16"/>
<path d="M55.43 10.9399C50.3 10.9399 44.68 13.9499 36.94 14.3799C29.2 14.8099 22.47 11.7999 18.45 13.2299C13.92 14.8499 12.86 16.9599 12.86 22.1199C12.86 27.2799 17.18 31.2099 19.73 31.5799C24.52 32.2799 26.25 30.2599 32.75 30.0099C44.09 29.5799 52 35.5799 53.72 40.5299C55 44.2099 55.69 53.4399 56.67 57.3199C56.99 58.6099 58 60.3799 61.01 60.3799C64.02 60.3799 64.88 53.4999 67.03 53.4999C69.18 53.4999 73.87 53.3899 74.3 60.2699C74.73 67.1499 74.16 67.7699 70.79 69.7699C67.08 71.9799 66.16 70.3399 64.88 70.9299C62.59 71.9899 64.29 78.4199 64.52 80.9399C64.72 83.1899 64.46 87.4699 71.76 87.0399C79.07 86.6099 80.36 80.1599 80.36 80.1599C80.36 80.1599 83.22 66.6899 86.38 59.7999C89.04 53.9899 91.97 48.7699 92.4 42.3199C92.83 35.8699 87.67 29.4199 87.67 29.4199C87.67 29.4199 90.11 27.5499 88.24 23.5399C86.41 19.5799 82.51 20.5299 82.51 20.5299C82.51 20.5299 84.52 16.0799 81.31 13.2599C77.84 10.2099 71.33 11.7899 69.04 14.9399C66.76 18.1099 66.78 10.9399 55.43 10.9399Z" fill="#F37721"/>
<path d="M71.47 85.5799C71.33 85.0999 70.71 85.9299 69.14 85.6499C67.92 85.4299 66.36 85.4099 66.19 83.4399C65.82 79.2899 63.92 74.6799 65.65 72.6799C66.5 71.6999 69.73 72.1599 70.76 71.7999C73.61 70.8099 75.3 67.8999 75.6 65.1699C76.47 57.2399 74.03 54.3399 71.56 53.2399C61.67 48.8399 64.29 61.6699 58.97 58.5699C55.99 56.8399 58.1 43.2199 52.66 35.7799C49.17 31.0099 35.62 27.2899 29.6 28.0999C27.08 28.4399 22.08 30.4299 20.33 32.2699C17.24 35.5199 14.74 43.4499 15.31 49.4699C15.89 55.4899 13.88 53.4599 12.87 53.0499C10.37 52.0299 1.38 52.2399 1.53 60.2599C1.67 68.2899 7.85 69.2499 12.51 68.8199C17.17 68.3899 17.46 70.9699 17.46 70.9699L17.35 74.7999C17.35 74.7999 21.34 75.4399 24.37 74.8099C27.9 74.0699 31.94 71.2299 33.64 72.1799C35.98 73.4899 31.02 78.4699 26.58 80.6199C22.13 82.7699 17.69 80.9899 17.69 80.9899C17.69 80.9899 17.02 92.0499 22.18 94.0599C27.34 96.0699 39.82 94.3999 42.24 94.0599C51.58 92.7599 72.9 90.6299 71.47 85.5799Z" fill="#F9B07D"/>
<path d="M29.61 48.5299C29.61 49.8299 28.67 50.8899 27.51 50.8899C26.35 50.8899 25.4 49.8399 25.4 48.5299C25.4 47.2299 26.34 46.1799 27.51 46.1799C28.67 46.1799 29.61 47.2299 29.61 48.5299Z" fill="#5F3A16"/>
<path d="M18.03 17.1499C16.24 18.5299 14.04 21.4899 17.2 26.6899" stroke="white" stroke-width="1.0809" stroke-miterlimit="10" stroke-linecap="round" stroke-linejoin="round"/>
<path d="M204.58 16.9099C206.92 16.5599 208.17 22.2399 211.55 23.1299C214.93 24.0199 219.57 19.4499 221.41 20.0199C225.83 21.3899 225.51 26.1799 228.16 26.6699C230.82 27.1499 233.32 25.8399 237.27 26.9899C242.42 28.4899 241.75 33.7999 242.95 35.2399C244.15 36.6799 248.1 40.6299 248.1 44.2499C248.1 47.8699 245.69 50.6599 247.14 51.2199C248.93 51.9099 249.63 45.7499 253.25 48.6499C256.87 51.5399 257.63 58.9199 256.57 59.9099C252.89 63.3699 249.3 62.6599 247.99 64.1999C242.76 70.3499 249.28 77.4399 232.87 89.4999C217.66 100.68 200.33 87.5699 200.33 87.5699C200.33 87.5699 191.51 80.6799 190.63 71.7599C189.93 64.6499 189.27 63.7699 187.2 61.6299C185.42 59.7899 180.16 62.2899 180.23 54.5499C180.31 45.9499 187.39 50.1399 189.24 48.6499C191.95 46.4699 187.29 37.3899 190.42 34.4999C193.56 31.6099 198.38 30.0099 202.53 24.2099C203.91 22.2999 202.77 17.1799 204.58 16.9099Z" fill="#FCCBA6"/>
<path d="M207.46 47.8999C207.46 49.4099 206.37 50.6399 205.01 50.6399C203.65 50.6399 202.56 49.4199 202.56 47.8999C202.56 46.3899 203.66 45.1699 205.01 45.1699C206.36 45.1699 207.46 46.3899 207.46 47.8999Z" fill="#5F3A16"/>
<path d="M230.18 48.32C230.18 49.83 229.09 51.06 227.74 51.06C226.39 51.06 225.29 49.84 225.29 48.32C225.29 46.81 226.39 45.59 227.74 45.59C229.09 45.59 230.18 46.82 230.18 48.32Z" fill="#5F3A16"/>
<path d="M200.77 10.43C198.52 9.46996 185.33 11.88 187.15 20.71C187.98 24.74 185.74 27.18 183.88 26.83C178.73 25.87 172.94 31.49 174.07 37.28C174.87 41.4 177.29 41.78 177.01 44.11C176.42 49.16 173.75 49.2 172.78 53.68C171.49 59.63 174.87 65.74 175.32 71.85C175.53 74.75 172.43 87.29 171.94 90.43C171.46 93.56 172.78 102.41 177.92 103.85C185.75 106.05 193.2 100.72 193.68 93.72C194.16 86.72 195.84 83.43 194.44 80.41C191.24 73.54 192.96 61.55 187.86 60.27C185.73 59.73 181.78 61.16 181.78 53.92C181.78 46.68 188.36 51.63 190.22 50.3C193.33 48.09 188.8 37.41 191.7 35.24C194.59 33.07 204.94 29.31 205.02 19.99C205.05 16.76 208.67 25.97 212.47 25.36C216.27 24.75 219.62 21.25 222.12 22.15C225.42 23.34 224.29 28.7 228.35 28.8C232 28.89 237.07 26.83 239.49 29.87C241.9 32.92 240.26 35.29 242.29 37.28C245.01 39.95 246.54 41.67 246.49 44.34C246.45 46.51 244.35 52.64 246.49 53.03C248.17 53.33 250.83 46.09 253.88 51.37C256.56 56 256 58.18 255.11 59.55C253.1 62.65 248.96 61.63 247.55 62.69C244.63 64.87 244.41 71.86 243.29 76.2C242.2 80.41 246.59 83.74 246.97 84.89C248.04 88.1 246.62 95.24 246.97 97.44C247.71 102.1 251.55 106.61 257.59 105.88C263.62 105.16 269.59 99.04 266.76 91.16C263.81 82.95 259.76 82.72 260.01 76.44C260.25 70.17 264.13 71.21 264.11 65.58C264.09 60.11 260.8 56.4 260.49 54.48C259.3 47.08 262.36 43.55 262.18 35.9C262.02 29.07 258.08 14.99 249.87 10.37C241.67 5.73996 229.23 -1.97004 219.09 0.449962C208.97 2.86996 206.2 12.75 200.77 10.43Z" fill="#B7682E"/>
<path d="M213.16 47.9C213.16 52.4 209.51 56.05 205.01 56.05C200.51 56.05 196.86 52.4 196.86 47.9C196.86 43.4 200.51 39.75 205.01 39.75C209.51 39.75 213.16 43.4 213.16 47.9Z" stroke="#5F3A16" stroke-width="1.0809" stroke-miterlimit="10" stroke-linecap="round" stroke-linejoin="round"/>
<path d="M235.89 48.3299C235.89 52.8299 232.24 56.4799 227.74 56.4799C223.24 56.4799 219.59 52.8299 219.59 48.3299C219.59 43.8299 223.24 40.1799 227.74 40.1799C232.24 40.1799 235.89 43.8299 235.89 48.3299Z" stroke="#5F3A16" stroke-width="1.0809" stroke-miterlimit="10" stroke-linecap="round" stroke-linejoin="round"/>
<path d="M212.94 46.1799C214.94 46.1799 217.44 46.6099 219.59 46.3899" stroke="#5F3A16" stroke-width="1.0809" stroke-miterlimit="10" stroke-linecap="round" stroke-linejoin="round"/>
<path d="M236.1 47.6899C238.1 47.6899 246.39 48.5499 248.11 48.9799" stroke="#5F3A16" stroke-width="1.0809" stroke-miterlimit="10" stroke-linecap="round" stroke-linejoin="round"/>
<path d="M188.5 48.54C190.5 48.54 195.46 47.43 197.29 46.61" stroke="#5F3A16" stroke-width="1.0809" stroke-miterlimit="10" stroke-linecap="round" stroke-linejoin="round"/>
<path d="M215.94 70.63C215.73 66.34 215.3 61.2 215.73 57.12" stroke="#5F3A16" stroke-width="1.0809" stroke-miterlimit="10" stroke-linecap="round" stroke-linejoin="round"/>
<path d="M227.52 74.37C226.29 75.33 208.58 75.58 206.53 74.37C204.64 73.25 209.37 84.24 217.65 84.24C225.61 84.24 232.6 70.4 227.52 74.37Z" fill="white"/>
<path d="M198.23 13.1599C194.35 13.9699 188.45 16.7499 189.57 23.4599" stroke="white" stroke-width="1.0809" stroke-miterlimit="10" stroke-linecap="round" stroke-linejoin="round"/>
<path d="M201.15 12.95C200.92 12.9 201.31 12.9 200.85 12.92" stroke="white" stroke-width="1.0809" stroke-miterlimit="10" stroke-linecap="round" stroke-linejoin="round"/>
<path d="M229.53 73.37C224.38 74.96 213.75 76.94 205.16 73.37" stroke="#B7682E" stroke-width="1.0809" stroke-miterlimit="10" stroke-linecap="round" stroke-linejoin="round"/>
<path d="M559.98 6.34008C553 8.22008 542.67 12.5901 536.67 23.5801C533.14 30.0401 532.6 41.1101 533.14 46.8901C533.46 50.3501 528.24 41.6001 524.52 48.8501C521.26 55.2001 525.25 63.7901 527.07 65.5001C530.4 68.6301 533.03 65.4201 534.15 66.3701C538.23 69.8101 535.22 87.7701 550.2 94.1901C565.18 100.61 576.2 101.81 581.32 100.95C589.55 99.5801 603.56 88.5101 604.63 73.5301C605.7 58.5501 606.18 39.5101 603.7 30.3501C601.5 22.2201 596.64 13.5301 585.83 9.48008C575.68 5.67008 565.46 4.86008 559.98 6.34008Z" fill="#F3AC77"/>
<path d="M582.32 47.66C582.32 48.64 581.62 49.43 580.74 49.43C579.87 49.43 579.16 48.64 579.16 47.66C579.16 46.69 579.87 45.9 580.74 45.9C581.62 45.9 582.32 46.69 582.32 47.66Z" fill="#5F3A16"/>
<path d="M600.25 47.9601C600.25 48.9401 599.55 49.7301 598.67 49.7301C597.8 49.7301 597.09 48.9401 597.09 47.9601C597.09 46.9901 597.8 46.2001 598.67 46.2001C599.54 46.2001 600.25 46.9901 600.25 47.9601Z" fill="#5F3A16"/>
<path d="M590.25 69.55C592.21 70.63 595.64 71.22 595.54 67.79C595.45 64.66 591.87 56.16 591.57 53.39" stroke="#5F3A16" stroke-width="1.0809" stroke-miterlimit="10" stroke-linecap="round" stroke-linejoin="round"/>
<path d="M581.31 77.28C582.42 77.07 600.37 75.92 602.26 76.45C604.12 76.97 597.79 87.02 592.88 87.85C586.05 89.01 575.78 78.34 581.31 77.28Z" fill="white"/>
<path d="M595.24 73.23C595.24 73.23 588.34 66.47 582.9 70.73C577.46 74.99 577.32 76.17 574.67 76.31C572.03 76.46 569.97 77.04 571.59 78.95C573.21 80.86 579.08 81.59 582.17 79.98C585.25 78.37 595.09 78.08 595.24 73.23Z" fill="#B7682E"/>
<path d="M593.04 73.3701C593.04 73.3701 597.45 67.9 600.92 71.35C604.39 74.8 604.48 75.7501 606.17 75.8701C607.86 75.9901 609.17 76.4601 608.14 78.0101C607.11 79.5601 603.35 80.15 601.38 78.84C599.42 77.52 593.13 77.2901 593.04 73.3701Z" fill="#B7682E"/>
<path d="M564.88 12.8C564.68 8.88002 565.08 6.92002 568.8 4.77002" stroke="#B7682E" stroke-width="1.0809" stroke-miterlimit="10" stroke-linecap="round" stroke-linejoin="round"/>
<path d="M568.99 13.1001C568.79 9.18007 569.19 7.22007 572.91 5.07007" stroke="#B7682E" stroke-width="1.0809" stroke-miterlimit="10" stroke-linecap="round" stroke-linejoin="round"/>
<path d="M539.22 24.8501C538.01 27.5201 534.62 37.4901 536.08 46.8901" stroke="white" stroke-width="1.0809" stroke-miterlimit="10" stroke-linecap="round" stroke-linejoin="round"/>
<path d="M540.59 22.99C541.01 22.96 540.38 22.94 540.59 22.99Z" stroke="white" stroke-width="1.0809" stroke-miterlimit="10" stroke-linecap="round" stroke-linejoin="round"/>
<path d="M598.57 71.76C598.99 71.74 598.36 71.71 598.57 71.76Z" stroke="white" stroke-width="1.0809" stroke-miterlimit="10" stroke-linecap="round" stroke-linejoin="round"/>
<path d="M597.82 85.39C594.95 88.12 589.88 89.91 584.51 85.39" stroke="#5F3A16" stroke-width="1.0809" stroke-miterlimit="10" stroke-linecap="round" stroke-linejoin="round"/>
<path d="M548.25 286.38C551.23 284.12 556.62 289.06 564.68 288.85C572.74 288.64 574.82 282.92 579.87 283.97C583.99 284.82 585.44 289.94 588.81 289.49C593.4 288.87 597.28 288.32 600.46 289.72C603.43 291.03 604.5 295.31 605.12 299.74C605.46 302.16 605.04 308.84 607.3 309.76C609.08 310.49 611.42 305.96 612.01 304.13C614.13 297.48 608.4 281.21 603.31 277.6C598.22 273.99 595.03 268.48 585.48 269.11C575.93 269.75 571.26 266.17 568.16 266.56C559.68 267.65 556.55 272.14 552.37 272.08C549.76 272.04 548.13 269.32 541.97 272.93C535.82 276.54 527.64 295.42 529.52 303.39C529.98 305.36 532.58 308.69 534.57 308.28C540.9 306.99 542.81 290.5 548.25 286.38Z" fill="#333333"/>
<path d="M533.48 317.72C536.2 319.87 534.97 336.18 543.88 338.73C552.79 341.28 555.77 345.73 565.74 346.37C575.72 347.01 582.29 349.77 588.45 346.37C594.6 342.98 607.28 333.83 606.7 325.57C606.37 320.88 606.99 318.6 608 319.71C609.17 320.99 616.27 323.56 616.04 310.85C615.86 300.89 608.93 307 607.71 308.53C606.58 309.94 607.14 291.74 601.59 289.16C595.14 286.17 591.9 288.99 588.11 288.08C584.32 287.17 583.76 282.56 578.24 282.95C574.96 283.18 570.1 287.53 564.8 287.53C559.49 287.53 553.5 284.7 550.04 284.58C546.57 284.46 543.43 288.86 542.12 293.75C540.8 298.64 537.38 306.26 534.12 306.88C531.92 307.3 530.59 301.54 525.73 306.96C523.01 309.99 525.62 318.48 529.23 318.69C532.82 318.92 532.63 317.04 533.48 317.72Z" fill="#FCC58D"/>
<path d="M540.17 342.63C534.93 345.12 521.95 349.11 517.72 337.11C510.34 316.21 525.8 317.92 529.76 317.69C531.03 317.62 532.94 315.45 534.11 316.76C536.45 319.38 535.4 325.74 539.16 332.69C540.17 334.55 541.79 336.34 542.73 337.51C543.64 338.62 544.92 340.37 540.17 342.63Z" fill="#333333"/>
<path d="M578.63 324.53C576.92 321.58 575.06 319.09 575.37 316.14" stroke="#5F3A16" stroke-width="0.9874" stroke-miterlimit="10" stroke-linecap="round" stroke-linejoin="round"/>
<path d="M546.78 313.42C549.33 314.59 570.17 314.35 570.86 313.42C572.56 311.14 572.68 304.19 570.86 302C568.55 299.2 547.01 301.07 546.78 302C546.09 304.77 544.19 312.24 546.78 313.42Z" stroke="#5F3A16" stroke-width="0.9874" stroke-miterlimit="10" stroke-linecap="round" stroke-linejoin="round"/>
<path d="M601.47 313.41C598.91 314.58 577.93 314.34 577.23 313.41C575.52 311.13 575.4 304.18 577.23 301.99C579.56 299.19 601.24 301.06 601.47 301.99C602.17 304.76 604.07 312.23 601.47 313.41Z" stroke="#5F3A16" stroke-width="0.9874" stroke-miterlimit="10" stroke-linecap="round" stroke-linejoin="round"/>
<path d="M533.73 307.01C535.18 307.01 544.68 304.8 546 304.21" stroke="#5F3A16" stroke-width="0.9874" stroke-miterlimit="10" stroke-linecap="round" stroke-linejoin="round"/>
<path d="M571.76 304.68C573.21 304.68 575.02 304.8 576.31 304.68" stroke="#5F3A16" stroke-width="0.9874" stroke-miterlimit="10" stroke-linecap="round" stroke-linejoin="round"/>
<path d="M602.29 305.73C603.74 305.73 607.18 306.43 608.58 307.13" stroke="#5F3A16" stroke-width="0.9874" stroke-miterlimit="10" stroke-linecap="round" stroke-linejoin="round"/>
<path d="M569 328.1C570.44 328.03 579.48 331.78 587.18 328.87C589.46 328.01 587.33 337.73 577.74 338.95C567.13 340.32 561.81 328.46 569 328.1Z" fill="white"/>
<path d="M566.57 305.57C566.57 306.67 565.78 307.55 564.8 307.55C563.82 307.55 563.03 306.66 563.03 305.57C563.03 304.48 563.82 303.59 564.8 303.59C565.78 303.59 566.57 304.48 566.57 305.57Z" fill="#5F3A16"/>
<path d="M597.81 305.88C597.81 306.98 597.02 307.86 596.04 307.86C595.06 307.86 594.27 306.97 594.27 305.88C594.27 304.79 595.06 303.9 596.04 303.9C597.02 303.9 597.81 304.79 597.81 305.88Z" fill="#5F3A16"/>
<path d="M546.14 273.79C543.33 274.37 536.45 279.15 532.48 293.6" stroke="white" stroke-width="0.9874" stroke-miterlimit="10" stroke-linecap="round" stroke-linejoin="round"/>
<path d="M548.25 273.64C548.08 273.6 548.36 273.6 548.03 273.62" stroke="white" stroke-width="0.9874" stroke-miterlimit="10" stroke-linecap="round" stroke-linejoin="round"/>
<path d="M586.07 335.71C580.94 340.68 573.91 341.11 569.66 337.52" stroke="#5F3A16" stroke-width="0.9874" stroke-miterlimit="10" stroke-linecap="round" stroke-linejoin="round"/>
<path d="M547.81 160.07C542.04 153.81 537.36 130.33 567.37 130.33C594.55 130.33 592.35 154.63 584.7 159.56C581.17 161.84 577.21 157.5 566.93 156.77C563.83 156.55 557.73 158.09 554.75 160.07C551.78 162.05 549.78 161.27 549.78 161.27C549.78 161.27 548.2 160.5 547.81 160.07Z" fill="#BCBDBF"/>
<path d="M566.22 164.75C566.61 170.08 565.2 178.88 557.37 184.22C549.54 189.57 536.43 195.16 533.28 194.82C531.73 194.65 528.73 191.29 525.79 192.47C524.31 193.06 522.66 196.66 524.91 201.72C527.85 208.33 529.61 207.45 532.7 207.01C536.27 206.5 536.67 218.03 541.51 224.78C545.71 230.63 560.4 238.49 566.78 238.74C573.16 238.99 589.26 230.85 593.22 223.17C597.19 215.49 597.33 207.89 599.1 205.84C600.39 204.34 603.07 210.1 606.74 203.78C609.71 198.67 607.18 187.91 601.45 192.47C597.69 195.46 595.16 193.37 592.93 191.88C590.7 190.39 576.04 183.14 573.54 178.51C570.6 173.07 570.66 169.93 569.87 167.35C569.06 164.69 567.42 156.31 566.49 156.48C564.45 156.85 566.06 162.68 566.22 164.75Z" fill="#DD9B70"/>
<path d="M572.41 210.29C571.68 213.82 564.08 213.72 564.48 210" stroke="#5F3A16" stroke-width="1.0809" stroke-miterlimit="10" stroke-linecap="round" stroke-linejoin="round"/>
<path d="M577.8 221.7C577.21 228.46 561.49 229.78 559.73 221.7" stroke="#5F3A16" stroke-width="1.0809" stroke-miterlimit="10" stroke-linecap="round" stroke-linejoin="round"/>
<path d="M560.56 197.46C559.83 200.99 552.23 200.89 552.63 197.17" stroke="#5F3A16" stroke-width="1.0809" stroke-miterlimit="10" stroke-linecap="round" stroke-linejoin="round"/>
<path d="M582.69 197.07C581.96 200.6 574.36 200.5 574.76 196.78" stroke="#5F3A16" stroke-width="1.0809" stroke-miterlimit="10" stroke-linecap="round" stroke-linejoin="round"/>
<path d="M566.89 157.37C570.61 165.72 568.78 179.99 553.55 188.79C544.15 194.23 533.13 198.54 530.94 194.27C526.85 186.3 530.03 170.98 546.64 162.05C563.26 153.14 566.11 155.61 566.89 157.37Z" fill="#BCBDBF"/>
<path d="M569.37 172.47C570.61 176.08 573.66 183.48 579.12 185.71C584.57 187.94 594.63 196.99 599.61 194.49C606.23 191.18 604.91 171.79 593.51 164.85C590.13 162.79 582.78 156.75 573.68 156.18C565.08 155.64 566.92 156.77 566.92 156.77C566.92 156.77 568.08 168.71 569.37 172.47Z" fill="#BCBDBF"/>
<path d="M361.94 298.81C361.94 298.81 364.18 288.44 365.07 285.79C366.07 282.82 370.43 271.27 385.14 269.88C399.84 268.49 412.29 271.4 417.96 281.44C422.88 290.16 421.74 299.24 421.74 299.24C421.74 299.24 427.41 297.11 429.3 303.8C430.89 309.45 425.69 310.65 425.69 310.65C425.69 310.65 427.36 316.06 425.86 324.8C423.52 338.45 409.03 343.07 399.23 343.82C389.88 344.54 373.46 344.13 364.08 334.08C354.08 323.38 359.14 309.33 359.14 309.33C359.14 309.33 354.29 308.18 354.91 303.19C355.52 298.21 361.94 298.81 361.94 298.81Z" fill="#F3AC77"/>
<path d="M385.84 302.13C385.14 305.5 377.88 305.41 378.25 301.85" stroke="#5F3A16" stroke-width="1.3907" stroke-miterlimit="10" stroke-linecap="round" stroke-linejoin="round"/>
<path d="M395.86 274.73C392.39 274.67 390.18 271.39 390.8 269.25C391.78 265.88 396 265.46 397.12 268.83C397.62 270.33 395.01 272.91 394.03 269.53" stroke="#B7682E" stroke-width="1.3907" stroke-miterlimit="10" stroke-linecap="round" stroke-linejoin="round"/>
<path d="M407.01 301.76C406.31 305.13 399.05 305.04 399.42 301.48" stroke="#5F3A16" stroke-width="1.3907" stroke-miterlimit="10" stroke-linecap="round" stroke-linejoin="round"/>
<path d="M393.29 317.17C392.73 314.92 393.1 313.61 393.1 309.67" stroke="#5F3A16" stroke-width="1.3907" stroke-miterlimit="10" stroke-linecap="round" stroke-linejoin="round"/>
<path d="M403.77 321.57C403 321.49 401.24 325.6 394.75 325.46C390.3 325.37 384.58 322.8 383.41 323.4C381.03 324.62 381.79 335.42 394.46 336.49C403.64 337.27 411.22 322.32 403.77 321.57Z" fill="white"/>
<path d="M380.15 273.6C376.76 274.3 366.77 281.47 366.77 295.24" stroke="white" stroke-width="1.3907" stroke-miterlimit="10" stroke-linecap="round" stroke-linejoin="round"/>
<path d="M382.7 273.42C382.5 273.37 382.84 273.37 382.44 273.4" stroke="white" stroke-width="1.3907" stroke-miterlimit="10" stroke-linecap="round" stroke-linejoin="round"/>
</svg>
